<mxfile host="Electron" agent="Mozilla/5.0 (Windows NT 10.0; Win64; x64) AppleWebKit/537.36 (KHTML, like Gecko) draw.io/28.1.2 Chrome/138.0.7204.243 Electron/37.4.0 Safari/537.36" version="28.1.2">
  <diagram name="第 1 页" id="uoNFX6OwBTpqjcqdzscJ">
    <mxGraphModel dx="2316" dy="1391" grid="1" gridSize="10" guides="1" tooltips="1" connect="1" arrows="1" fold="1" page="1" pageScale="1" pageWidth="827" pageHeight="1169" math="0" shadow="0">
      <root>
        <mxCell id="0" />
        <mxCell id="1" parent="0" />
        <mxCell id="X4feA5MgBI4GjkRbaJ-2-1" value="mcp_tool" style="shape=table;startSize=25;container=1;collapsible=0;childLayout=tableLayout;fixedRows=1;rowLines=1;fontStyle=1;align=center;resizeLast=1;" parent="1" vertex="1">
          <mxGeometry x="618" y="20" width="462" height="641" as="geometry" />
        </mxCell>
        <mxCell id="X4feA5MgBI4GjkRbaJ-2-2" style="shape=tableRow;horizontal=0;startSize=0;swimlaneHead=0;swimlaneBody=0;fillColor=none;collapsible=0;dropTarget=0;points=[[0,0.5],[1,0.5]];portConstraint=eastwest;top=0;left=0;right=0;bottom=0;" parent="X4feA5MgBI4GjkRbaJ-2-1" vertex="1">
          <mxGeometry y="25" width="462" height="44" as="geometry" />
        </mxCell>
        <mxCell id="X4feA5MgBI4GjkRbaJ-2-3" value="bigint" style="shape=partialRectangle;connectable=0;fillColor=none;top=0;left=0;bottom=0;right=0;align=left;spacingLeft=2;overflow=hidden;fontSize=11;" parent="X4feA5MgBI4GjkRbaJ-2-2" vertex="1">
          <mxGeometry width="48" height="44" as="geometry">
            <mxRectangle width="48" height="44" as="alternateBounds" />
          </mxGeometry>
        </mxCell>
        <mxCell id="X4feA5MgBI4GjkRbaJ-2-4" value="id" style="shape=partialRectangle;connectable=0;fillColor=none;top=0;left=0;bottom=0;right=0;align=left;spacingLeft=2;overflow=hidden;fontSize=11;" parent="X4feA5MgBI4GjkRbaJ-2-2" vertex="1">
          <mxGeometry x="48" width="289" height="44" as="geometry">
            <mxRectangle width="289" height="44" as="alternateBounds" />
          </mxGeometry>
        </mxCell>
        <mxCell id="X4feA5MgBI4GjkRbaJ-2-5" value="PK" style="shape=partialRectangle;connectable=0;fillColor=none;top=0;left=0;bottom=0;right=0;align=left;spacingLeft=2;overflow=hidden;fontSize=11;" parent="X4feA5MgBI4GjkRbaJ-2-2" vertex="1">
          <mxGeometry x="337" width="22" height="44" as="geometry">
            <mxRectangle width="22" height="44" as="alternateBounds" />
          </mxGeometry>
        </mxCell>
        <mxCell id="X4feA5MgBI4GjkRbaJ-2-6" value="主键" style="shape=partialRectangle;connectable=0;fillColor=none;top=0;left=0;bottom=0;right=0;align=left;spacingLeft=2;overflow=hidden;fontSize=11;" parent="X4feA5MgBI4GjkRbaJ-2-2" vertex="1">
          <mxGeometry x="359" width="103" height="44" as="geometry">
            <mxRectangle width="103" height="44" as="alternateBounds" />
          </mxGeometry>
        </mxCell>
        <mxCell id="X4feA5MgBI4GjkRbaJ-2-7" style="shape=tableRow;horizontal=0;startSize=0;swimlaneHead=0;swimlaneBody=0;fillColor=none;collapsible=0;dropTarget=0;points=[[0,0.5],[1,0.5]];portConstraint=eastwest;top=0;left=0;right=0;bottom=0;" parent="X4feA5MgBI4GjkRbaJ-2-1" vertex="1">
          <mxGeometry y="69" width="462" height="44" as="geometry" />
        </mxCell>
        <mxCell id="X4feA5MgBI4GjkRbaJ-2-8" value="datetime" style="shape=partialRectangle;connectable=0;fillColor=none;top=0;left=0;bottom=0;right=0;align=left;spacingLeft=2;overflow=hidden;fontSize=11;" parent="X4feA5MgBI4GjkRbaJ-2-7" vertex="1">
          <mxGeometry width="48" height="44" as="geometry">
            <mxRectangle width="48" height="44" as="alternateBounds" />
          </mxGeometry>
        </mxCell>
        <mxCell id="X4feA5MgBI4GjkRbaJ-2-9" value="create_time" style="shape=partialRectangle;connectable=0;fillColor=none;top=0;left=0;bottom=0;right=0;align=left;spacingLeft=2;overflow=hidden;fontSize=11;" parent="X4feA5MgBI4GjkRbaJ-2-7" vertex="1">
          <mxGeometry x="48" width="289" height="44" as="geometry">
            <mxRectangle width="289" height="44" as="alternateBounds" />
          </mxGeometry>
        </mxCell>
        <mxCell id="X4feA5MgBI4GjkRbaJ-2-10" value="" style="shape=partialRectangle;connectable=0;fillColor=none;top=0;left=0;bottom=0;right=0;align=left;spacingLeft=2;overflow=hidden;fontSize=11;" parent="X4feA5MgBI4GjkRbaJ-2-7" vertex="1">
          <mxGeometry x="337" width="22" height="44" as="geometry">
            <mxRectangle width="22" height="44" as="alternateBounds" />
          </mxGeometry>
        </mxCell>
        <mxCell id="X4feA5MgBI4GjkRbaJ-2-11" value="创建时间" style="shape=partialRectangle;connectable=0;fillColor=none;top=0;left=0;bottom=0;right=0;align=left;spacingLeft=2;overflow=hidden;fontSize=11;" parent="X4feA5MgBI4GjkRbaJ-2-7" vertex="1">
          <mxGeometry x="359" width="103" height="44" as="geometry">
            <mxRectangle width="103" height="44" as="alternateBounds" />
          </mxGeometry>
        </mxCell>
        <mxCell id="X4feA5MgBI4GjkRbaJ-2-12" style="shape=tableRow;horizontal=0;startSize=0;swimlaneHead=0;swimlaneBody=0;fillColor=none;collapsible=0;dropTarget=0;points=[[0,0.5],[1,0.5]];portConstraint=eastwest;top=0;left=0;right=0;bottom=0;" parent="X4feA5MgBI4GjkRbaJ-2-1" vertex="1">
          <mxGeometry y="113" width="462" height="44" as="geometry" />
        </mxCell>
        <mxCell id="X4feA5MgBI4GjkRbaJ-2-13" value="datetime" style="shape=partialRectangle;connectable=0;fillColor=none;top=0;left=0;bottom=0;right=0;align=left;spacingLeft=2;overflow=hidden;fontSize=11;" parent="X4feA5MgBI4GjkRbaJ-2-12" vertex="1">
          <mxGeometry width="48" height="44" as="geometry">
            <mxRectangle width="48" height="44" as="alternateBounds" />
          </mxGeometry>
        </mxCell>
        <mxCell id="X4feA5MgBI4GjkRbaJ-2-14" value="update_time" style="shape=partialRectangle;connectable=0;fillColor=none;top=0;left=0;bottom=0;right=0;align=left;spacingLeft=2;overflow=hidden;fontSize=11;" parent="X4feA5MgBI4GjkRbaJ-2-12" vertex="1">
          <mxGeometry x="48" width="289" height="44" as="geometry">
            <mxRectangle width="289" height="44" as="alternateBounds" />
          </mxGeometry>
        </mxCell>
        <mxCell id="X4feA5MgBI4GjkRbaJ-2-15" value="" style="shape=partialRectangle;connectable=0;fillColor=none;top=0;left=0;bottom=0;right=0;align=left;spacingLeft=2;overflow=hidden;fontSize=11;" parent="X4feA5MgBI4GjkRbaJ-2-12" vertex="1">
          <mxGeometry x="337" width="22" height="44" as="geometry">
            <mxRectangle width="22" height="44" as="alternateBounds" />
          </mxGeometry>
        </mxCell>
        <mxCell id="X4feA5MgBI4GjkRbaJ-2-16" value="更新时间" style="shape=partialRectangle;connectable=0;fillColor=none;top=0;left=0;bottom=0;right=0;align=left;spacingLeft=2;overflow=hidden;fontSize=11;" parent="X4feA5MgBI4GjkRbaJ-2-12" vertex="1">
          <mxGeometry x="359" width="103" height="44" as="geometry">
            <mxRectangle width="103" height="44" as="alternateBounds" />
          </mxGeometry>
        </mxCell>
        <mxCell id="X4feA5MgBI4GjkRbaJ-2-17" style="shape=tableRow;horizontal=0;startSize=0;swimlaneHead=0;swimlaneBody=0;fillColor=none;collapsible=0;dropTarget=0;points=[[0,0.5],[1,0.5]];portConstraint=eastwest;top=0;left=0;right=0;bottom=0;" parent="X4feA5MgBI4GjkRbaJ-2-1" vertex="1">
          <mxGeometry y="157" width="462" height="44" as="geometry" />
        </mxCell>
        <mxCell id="X4feA5MgBI4GjkRbaJ-2-18" value="bigint" style="shape=partialRectangle;connectable=0;fillColor=none;top=0;left=0;bottom=0;right=0;align=left;spacingLeft=2;overflow=hidden;fontSize=11;" parent="X4feA5MgBI4GjkRbaJ-2-17" vertex="1">
          <mxGeometry width="48" height="44" as="geometry">
            <mxRectangle width="48" height="44" as="alternateBounds" />
          </mxGeometry>
        </mxCell>
        <mxCell id="X4feA5MgBI4GjkRbaJ-2-19" value="tool_num" style="shape=partialRectangle;connectable=0;fillColor=none;top=0;left=0;bottom=0;right=0;align=left;spacingLeft=2;overflow=hidden;fontSize=11;" parent="X4feA5MgBI4GjkRbaJ-2-17" vertex="1">
          <mxGeometry x="48" width="289" height="44" as="geometry">
            <mxRectangle width="289" height="44" as="alternateBounds" />
          </mxGeometry>
        </mxCell>
        <mxCell id="X4feA5MgBI4GjkRbaJ-2-20" value="" style="shape=partialRectangle;connectable=0;fillColor=none;top=0;left=0;bottom=0;right=0;align=left;spacingLeft=2;overflow=hidden;fontSize=11;" parent="X4feA5MgBI4GjkRbaJ-2-17" vertex="1">
          <mxGeometry x="337" width="22" height="44" as="geometry">
            <mxRectangle width="22" height="44" as="alternateBounds" />
          </mxGeometry>
        </mxCell>
        <mxCell id="X4feA5MgBI4GjkRbaJ-2-21" value="工具编号" style="shape=partialRectangle;connectable=0;fillColor=none;top=0;left=0;bottom=0;right=0;align=left;spacingLeft=2;overflow=hidden;fontSize=11;" parent="X4feA5MgBI4GjkRbaJ-2-17" vertex="1">
          <mxGeometry x="359" width="103" height="44" as="geometry">
            <mxRectangle width="103" height="44" as="alternateBounds" />
          </mxGeometry>
        </mxCell>
        <mxCell id="X4feA5MgBI4GjkRbaJ-2-22" style="shape=tableRow;horizontal=0;startSize=0;swimlaneHead=0;swimlaneBody=0;fillColor=none;collapsible=0;dropTarget=0;points=[[0,0.5],[1,0.5]];portConstraint=eastwest;top=0;left=0;right=0;bottom=0;" parent="X4feA5MgBI4GjkRbaJ-2-1" vertex="1">
          <mxGeometry y="201" width="462" height="44" as="geometry" />
        </mxCell>
        <mxCell id="X4feA5MgBI4GjkRbaJ-2-23" value="bigint" style="shape=partialRectangle;connectable=0;fillColor=none;top=0;left=0;bottom=0;right=0;align=left;spacingLeft=2;overflow=hidden;fontSize=11;" parent="X4feA5MgBI4GjkRbaJ-2-22" vertex="1">
          <mxGeometry width="48" height="44" as="geometry">
            <mxRectangle width="48" height="44" as="alternateBounds" />
          </mxGeometry>
        </mxCell>
        <mxCell id="X4feA5MgBI4GjkRbaJ-2-24" value="tool_version" style="shape=partialRectangle;connectable=0;fillColor=none;top=0;left=0;bottom=0;right=0;align=left;spacingLeft=2;overflow=hidden;fontSize=11;" parent="X4feA5MgBI4GjkRbaJ-2-22" vertex="1">
          <mxGeometry x="48" width="289" height="44" as="geometry">
            <mxRectangle width="289" height="44" as="alternateBounds" />
          </mxGeometry>
        </mxCell>
        <mxCell id="X4feA5MgBI4GjkRbaJ-2-25" value="" style="shape=partialRectangle;connectable=0;fillColor=none;top=0;left=0;bottom=0;right=0;align=left;spacingLeft=2;overflow=hidden;fontSize=11;" parent="X4feA5MgBI4GjkRbaJ-2-22" vertex="1">
          <mxGeometry x="337" width="22" height="44" as="geometry">
            <mxRectangle width="22" height="44" as="alternateBounds" />
          </mxGeometry>
        </mxCell>
        <mxCell id="X4feA5MgBI4GjkRbaJ-2-26" value="工具版本" style="shape=partialRectangle;connectable=0;fillColor=none;top=0;left=0;bottom=0;right=0;align=left;spacingLeft=2;overflow=hidden;fontSize=11;" parent="X4feA5MgBI4GjkRbaJ-2-22" vertex="1">
          <mxGeometry x="359" width="103" height="44" as="geometry">
            <mxRectangle width="103" height="44" as="alternateBounds" />
          </mxGeometry>
        </mxCell>
        <mxCell id="X4feA5MgBI4GjkRbaJ-2-27" style="shape=tableRow;horizontal=0;startSize=0;swimlaneHead=0;swimlaneBody=0;fillColor=none;collapsible=0;dropTarget=0;points=[[0,0.5],[1,0.5]];portConstraint=eastwest;top=0;left=0;right=0;bottom=0;" parent="X4feA5MgBI4GjkRbaJ-2-1" vertex="1">
          <mxGeometry y="245" width="462" height="44" as="geometry" />
        </mxCell>
        <mxCell id="X4feA5MgBI4GjkRbaJ-2-28" value="char" style="shape=partialRectangle;connectable=0;fillColor=none;top=0;left=0;bottom=0;right=0;align=left;spacingLeft=2;overflow=hidden;fontSize=11;" parent="X4feA5MgBI4GjkRbaJ-2-27" vertex="1">
          <mxGeometry width="48" height="44" as="geometry">
            <mxRectangle width="48" height="44" as="alternateBounds" />
          </mxGeometry>
        </mxCell>
        <mxCell id="X4feA5MgBI4GjkRbaJ-2-29" value="valid" style="shape=partialRectangle;connectable=0;fillColor=none;top=0;left=0;bottom=0;right=0;align=left;spacingLeft=2;overflow=hidden;fontSize=11;" parent="X4feA5MgBI4GjkRbaJ-2-27" vertex="1">
          <mxGeometry x="48" width="289" height="44" as="geometry">
            <mxRectangle width="289" height="44" as="alternateBounds" />
          </mxGeometry>
        </mxCell>
        <mxCell id="X4feA5MgBI4GjkRbaJ-2-30" value="" style="shape=partialRectangle;connectable=0;fillColor=none;top=0;left=0;bottom=0;right=0;align=left;spacingLeft=2;overflow=hidden;fontSize=11;" parent="X4feA5MgBI4GjkRbaJ-2-27" vertex="1">
          <mxGeometry x="337" width="22" height="44" as="geometry">
            <mxRectangle width="22" height="44" as="alternateBounds" />
          </mxGeometry>
        </mxCell>
        <mxCell id="X4feA5MgBI4GjkRbaJ-2-31" value="有效性" style="shape=partialRectangle;connectable=0;fillColor=none;top=0;left=0;bottom=0;right=0;align=left;spacingLeft=2;overflow=hidden;fontSize=11;" parent="X4feA5MgBI4GjkRbaJ-2-27" vertex="1">
          <mxGeometry x="359" width="103" height="44" as="geometry">
            <mxRectangle width="103" height="44" as="alternateBounds" />
          </mxGeometry>
        </mxCell>
        <mxCell id="X4feA5MgBI4GjkRbaJ-2-32" style="shape=tableRow;horizontal=0;startSize=0;swimlaneHead=0;swimlaneBody=0;fillColor=none;collapsible=0;dropTarget=0;points=[[0,0.5],[1,0.5]];portConstraint=eastwest;top=0;left=0;right=0;bottom=0;" parent="X4feA5MgBI4GjkRbaJ-2-1" vertex="1">
          <mxGeometry y="289" width="462" height="44" as="geometry" />
        </mxCell>
        <mxCell id="X4feA5MgBI4GjkRbaJ-2-33" value="varchar" style="shape=partialRectangle;connectable=0;fillColor=none;top=0;left=0;bottom=0;right=0;align=left;spacingLeft=2;overflow=hidden;fontSize=11;" parent="X4feA5MgBI4GjkRbaJ-2-32" vertex="1">
          <mxGeometry width="48" height="44" as="geometry">
            <mxRectangle width="48" height="44" as="alternateBounds" />
          </mxGeometry>
        </mxCell>
        <mxCell id="X4feA5MgBI4GjkRbaJ-2-34" value="tool_name" style="shape=partialRectangle;connectable=0;fillColor=none;top=0;left=0;bottom=0;right=0;align=left;spacingLeft=2;overflow=hidden;fontSize=11;" parent="X4feA5MgBI4GjkRbaJ-2-32" vertex="1">
          <mxGeometry x="48" width="289" height="44" as="geometry">
            <mxRectangle width="289" height="44" as="alternateBounds" />
          </mxGeometry>
        </mxCell>
        <mxCell id="X4feA5MgBI4GjkRbaJ-2-35" value="" style="shape=partialRectangle;connectable=0;fillColor=none;top=0;left=0;bottom=0;right=0;align=left;spacingLeft=2;overflow=hidden;fontSize=11;" parent="X4feA5MgBI4GjkRbaJ-2-32" vertex="1">
          <mxGeometry x="337" width="22" height="44" as="geometry">
            <mxRectangle width="22" height="44" as="alternateBounds" />
          </mxGeometry>
        </mxCell>
        <mxCell id="X4feA5MgBI4GjkRbaJ-2-36" value="工具英文名" style="shape=partialRectangle;connectable=0;fillColor=none;top=0;left=0;bottom=0;right=0;align=left;spacingLeft=2;overflow=hidden;fontSize=11;" parent="X4feA5MgBI4GjkRbaJ-2-32" vertex="1">
          <mxGeometry x="359" width="103" height="44" as="geometry">
            <mxRectangle width="103" height="44" as="alternateBounds" />
          </mxGeometry>
        </mxCell>
        <mxCell id="X4feA5MgBI4GjkRbaJ-2-37" style="shape=tableRow;horizontal=0;startSize=0;swimlaneHead=0;swimlaneBody=0;fillColor=none;collapsible=0;dropTarget=0;points=[[0,0.5],[1,0.5]];portConstraint=eastwest;top=0;left=0;right=0;bottom=0;" parent="X4feA5MgBI4GjkRbaJ-2-1" vertex="1">
          <mxGeometry y="333" width="462" height="44" as="geometry" />
        </mxCell>
        <mxCell id="X4feA5MgBI4GjkRbaJ-2-38" value="text" style="shape=partialRectangle;connectable=0;fillColor=none;top=0;left=0;bottom=0;right=0;align=left;spacingLeft=2;overflow=hidden;fontSize=11;" parent="X4feA5MgBI4GjkRbaJ-2-37" vertex="1">
          <mxGeometry width="48" height="44" as="geometry">
            <mxRectangle width="48" height="44" as="alternateBounds" />
          </mxGeometry>
        </mxCell>
        <mxCell id="X4feA5MgBI4GjkRbaJ-2-39" value="name_display" style="shape=partialRectangle;connectable=0;fillColor=none;top=0;left=0;bottom=0;right=0;align=left;spacingLeft=2;overflow=hidden;fontSize=11;" parent="X4feA5MgBI4GjkRbaJ-2-37" vertex="1">
          <mxGeometry x="48" width="289" height="44" as="geometry">
            <mxRectangle width="289" height="44" as="alternateBounds" />
          </mxGeometry>
        </mxCell>
        <mxCell id="X4feA5MgBI4GjkRbaJ-2-40" value="" style="shape=partialRectangle;connectable=0;fillColor=none;top=0;left=0;bottom=0;right=0;align=left;spacingLeft=2;overflow=hidden;fontSize=11;" parent="X4feA5MgBI4GjkRbaJ-2-37" vertex="1">
          <mxGeometry x="337" width="22" height="44" as="geometry">
            <mxRectangle width="22" height="44" as="alternateBounds" />
          </mxGeometry>
        </mxCell>
        <mxCell id="X4feA5MgBI4GjkRbaJ-2-41" value="显示用名字" style="shape=partialRectangle;connectable=0;fillColor=none;top=0;left=0;bottom=0;right=0;align=left;spacingLeft=2;overflow=hidden;fontSize=11;" parent="X4feA5MgBI4GjkRbaJ-2-37" vertex="1">
          <mxGeometry x="359" width="103" height="44" as="geometry">
            <mxRectangle width="103" height="44" as="alternateBounds" />
          </mxGeometry>
        </mxCell>
        <mxCell id="X4feA5MgBI4GjkRbaJ-2-42" style="shape=tableRow;horizontal=0;startSize=0;swimlaneHead=0;swimlaneBody=0;fillColor=none;collapsible=0;dropTarget=0;points=[[0,0.5],[1,0.5]];portConstraint=eastwest;top=0;left=0;right=0;bottom=0;" parent="X4feA5MgBI4GjkRbaJ-2-1" vertex="1">
          <mxGeometry y="377" width="462" height="44" as="geometry" />
        </mxCell>
        <mxCell id="X4feA5MgBI4GjkRbaJ-2-43" value="text" style="shape=partialRectangle;connectable=0;fillColor=none;top=0;left=0;bottom=0;right=0;align=left;spacingLeft=2;overflow=hidden;fontSize=11;" parent="X4feA5MgBI4GjkRbaJ-2-42" vertex="1">
          <mxGeometry width="48" height="44" as="geometry">
            <mxRectangle width="48" height="44" as="alternateBounds" />
          </mxGeometry>
        </mxCell>
        <mxCell id="X4feA5MgBI4GjkRbaJ-2-44" value="description_display" style="shape=partialRectangle;connectable=0;fillColor=none;top=0;left=0;bottom=0;right=0;align=left;spacingLeft=2;overflow=hidden;fontSize=11;" parent="X4feA5MgBI4GjkRbaJ-2-42" vertex="1">
          <mxGeometry x="48" width="289" height="44" as="geometry">
            <mxRectangle width="289" height="44" as="alternateBounds" />
          </mxGeometry>
        </mxCell>
        <mxCell id="X4feA5MgBI4GjkRbaJ-2-45" value="" style="shape=partialRectangle;connectable=0;fillColor=none;top=0;left=0;bottom=0;right=0;align=left;spacingLeft=2;overflow=hidden;fontSize=11;" parent="X4feA5MgBI4GjkRbaJ-2-42" vertex="1">
          <mxGeometry x="337" width="22" height="44" as="geometry">
            <mxRectangle width="22" height="44" as="alternateBounds" />
          </mxGeometry>
        </mxCell>
        <mxCell id="X4feA5MgBI4GjkRbaJ-2-46" value="显示用描述" style="shape=partialRectangle;connectable=0;fillColor=none;top=0;left=0;bottom=0;right=0;align=left;spacingLeft=2;overflow=hidden;fontSize=11;" parent="X4feA5MgBI4GjkRbaJ-2-42" vertex="1">
          <mxGeometry x="359" width="103" height="44" as="geometry">
            <mxRectangle width="103" height="44" as="alternateBounds" />
          </mxGeometry>
        </mxCell>
        <mxCell id="X4feA5MgBI4GjkRbaJ-2-47" style="shape=tableRow;horizontal=0;startSize=0;swimlaneHead=0;swimlaneBody=0;fillColor=none;collapsible=0;dropTarget=0;points=[[0,0.5],[1,0.5]];portConstraint=eastwest;top=0;left=0;right=0;bottom=0;" parent="X4feA5MgBI4GjkRbaJ-2-1" vertex="1">
          <mxGeometry y="421" width="462" height="44" as="geometry" />
        </mxCell>
        <mxCell id="X4feA5MgBI4GjkRbaJ-2-48" value="text" style="shape=partialRectangle;connectable=0;fillColor=none;top=0;left=0;bottom=0;right=0;align=left;spacingLeft=2;overflow=hidden;fontSize=11;" parent="X4feA5MgBI4GjkRbaJ-2-47" vertex="1">
          <mxGeometry width="48" height="44" as="geometry">
            <mxRectangle width="48" height="44" as="alternateBounds" />
          </mxGeometry>
        </mxCell>
        <mxCell id="X4feA5MgBI4GjkRbaJ-2-49" value="input_schema" style="shape=partialRectangle;connectable=0;fillColor=none;top=0;left=0;bottom=0;right=0;align=left;spacingLeft=2;overflow=hidden;fontSize=11;" parent="X4feA5MgBI4GjkRbaJ-2-47" vertex="1">
          <mxGeometry x="48" width="289" height="44" as="geometry">
            <mxRectangle width="289" height="44" as="alternateBounds" />
          </mxGeometry>
        </mxCell>
        <mxCell id="X4feA5MgBI4GjkRbaJ-2-50" value="" style="shape=partialRectangle;connectable=0;fillColor=none;top=0;left=0;bottom=0;right=0;align=left;spacingLeft=2;overflow=hidden;fontSize=11;" parent="X4feA5MgBI4GjkRbaJ-2-47" vertex="1">
          <mxGeometry x="337" width="22" height="44" as="geometry">
            <mxRectangle width="22" height="44" as="alternateBounds" />
          </mxGeometry>
        </mxCell>
        <mxCell id="X4feA5MgBI4GjkRbaJ-2-51" value="输入schema" style="shape=partialRectangle;connectable=0;fillColor=none;top=0;left=0;bottom=0;right=0;align=left;spacingLeft=2;overflow=hidden;fontSize=11;" parent="X4feA5MgBI4GjkRbaJ-2-47" vertex="1">
          <mxGeometry x="359" width="103" height="44" as="geometry">
            <mxRectangle width="103" height="44" as="alternateBounds" />
          </mxGeometry>
        </mxCell>
        <mxCell id="X4feA5MgBI4GjkRbaJ-2-52" style="shape=tableRow;horizontal=0;startSize=0;swimlaneHead=0;swimlaneBody=0;fillColor=none;collapsible=0;dropTarget=0;points=[[0,0.5],[1,0.5]];portConstraint=eastwest;top=0;left=0;right=0;bottom=0;" parent="X4feA5MgBI4GjkRbaJ-2-1" vertex="1">
          <mxGeometry y="465" width="462" height="44" as="geometry" />
        </mxCell>
        <mxCell id="X4feA5MgBI4GjkRbaJ-2-53" value="text" style="shape=partialRectangle;connectable=0;fillColor=none;top=0;left=0;bottom=0;right=0;align=left;spacingLeft=2;overflow=hidden;fontSize=11;" parent="X4feA5MgBI4GjkRbaJ-2-52" vertex="1">
          <mxGeometry width="48" height="44" as="geometry">
            <mxRectangle width="48" height="44" as="alternateBounds" />
          </mxGeometry>
        </mxCell>
        <mxCell id="X4feA5MgBI4GjkRbaJ-2-54" value="output_schema" style="shape=partialRectangle;connectable=0;fillColor=none;top=0;left=0;bottom=0;right=0;align=left;spacingLeft=2;overflow=hidden;fontSize=11;" parent="X4feA5MgBI4GjkRbaJ-2-52" vertex="1">
          <mxGeometry x="48" width="289" height="44" as="geometry">
            <mxRectangle width="289" height="44" as="alternateBounds" />
          </mxGeometry>
        </mxCell>
        <mxCell id="X4feA5MgBI4GjkRbaJ-2-55" value="" style="shape=partialRectangle;connectable=0;fillColor=none;top=0;left=0;bottom=0;right=0;align=left;spacingLeft=2;overflow=hidden;fontSize=11;" parent="X4feA5MgBI4GjkRbaJ-2-52" vertex="1">
          <mxGeometry x="337" width="22" height="44" as="geometry">
            <mxRectangle width="22" height="44" as="alternateBounds" />
          </mxGeometry>
        </mxCell>
        <mxCell id="X4feA5MgBI4GjkRbaJ-2-56" value="输出schema" style="shape=partialRectangle;connectable=0;fillColor=none;top=0;left=0;bottom=0;right=0;align=left;spacingLeft=2;overflow=hidden;fontSize=11;" parent="X4feA5MgBI4GjkRbaJ-2-52" vertex="1">
          <mxGeometry x="359" width="103" height="44" as="geometry">
            <mxRectangle width="103" height="44" as="alternateBounds" />
          </mxGeometry>
        </mxCell>
        <mxCell id="X4feA5MgBI4GjkRbaJ-2-57" style="shape=tableRow;horizontal=0;startSize=0;swimlaneHead=0;swimlaneBody=0;fillColor=none;collapsible=0;dropTarget=0;points=[[0,0.5],[1,0.5]];portConstraint=eastwest;top=0;left=0;right=0;bottom=0;" parent="X4feA5MgBI4GjkRbaJ-2-1" vertex="1">
          <mxGeometry y="509" width="462" height="44" as="geometry" />
        </mxCell>
        <mxCell id="X4feA5MgBI4GjkRbaJ-2-58" value="char" style="shape=partialRectangle;connectable=0;fillColor=none;top=0;left=0;bottom=0;right=0;align=left;spacingLeft=2;overflow=hidden;fontSize=11;" parent="X4feA5MgBI4GjkRbaJ-2-57" vertex="1">
          <mxGeometry width="48" height="44" as="geometry">
            <mxRectangle width="48" height="44" as="alternateBounds" />
          </mxGeometry>
        </mxCell>
        <mxCell id="X4feA5MgBI4GjkRbaJ-2-59" value="stream_output" style="shape=partialRectangle;connectable=0;fillColor=none;top=0;left=0;bottom=0;right=0;align=left;spacingLeft=2;overflow=hidden;fontSize=11;" parent="X4feA5MgBI4GjkRbaJ-2-57" vertex="1">
          <mxGeometry x="48" width="289" height="44" as="geometry">
            <mxRectangle width="289" height="44" as="alternateBounds" />
          </mxGeometry>
        </mxCell>
        <mxCell id="X4feA5MgBI4GjkRbaJ-2-60" value="" style="shape=partialRectangle;connectable=0;fillColor=none;top=0;left=0;bottom=0;right=0;align=left;spacingLeft=2;overflow=hidden;fontSize=11;" parent="X4feA5MgBI4GjkRbaJ-2-57" vertex="1">
          <mxGeometry x="337" width="22" height="44" as="geometry">
            <mxRectangle width="22" height="44" as="alternateBounds" />
          </mxGeometry>
        </mxCell>
        <mxCell id="X4feA5MgBI4GjkRbaJ-2-61" value="是否流式" style="shape=partialRectangle;connectable=0;fillColor=none;top=0;left=0;bottom=0;right=0;align=left;spacingLeft=2;overflow=hidden;fontSize=11;" parent="X4feA5MgBI4GjkRbaJ-2-57" vertex="1">
          <mxGeometry x="359" width="103" height="44" as="geometry">
            <mxRectangle width="103" height="44" as="alternateBounds" />
          </mxGeometry>
        </mxCell>
        <mxCell id="X4feA5MgBI4GjkRbaJ-2-62" style="shape=tableRow;horizontal=0;startSize=0;swimlaneHead=0;swimlaneBody=0;fillColor=none;collapsible=0;dropTarget=0;points=[[0,0.5],[1,0.5]];portConstraint=eastwest;top=0;left=0;right=0;bottom=0;" parent="X4feA5MgBI4GjkRbaJ-2-1" vertex="1">
          <mxGeometry y="553" width="462" height="44" as="geometry" />
        </mxCell>
        <mxCell id="X4feA5MgBI4GjkRbaJ-2-63" value="char" style="shape=partialRectangle;connectable=0;fillColor=none;top=0;left=0;bottom=0;right=0;align=left;spacingLeft=2;overflow=hidden;fontSize=11;" parent="X4feA5MgBI4GjkRbaJ-2-62" vertex="1">
          <mxGeometry width="48" height="44" as="geometry">
            <mxRectangle width="48" height="44" as="alternateBounds" />
          </mxGeometry>
        </mxCell>
        <mxCell id="X4feA5MgBI4GjkRbaJ-2-64" value="convert_type" style="shape=partialRectangle;connectable=0;fillColor=none;top=0;left=0;bottom=0;right=0;align=left;spacingLeft=2;overflow=hidden;fontSize=11;" parent="X4feA5MgBI4GjkRbaJ-2-62" vertex="1">
          <mxGeometry x="48" width="289" height="44" as="geometry">
            <mxRectangle width="289" height="44" as="alternateBounds" />
          </mxGeometry>
        </mxCell>
        <mxCell id="X4feA5MgBI4GjkRbaJ-2-65" value="" style="shape=partialRectangle;connectable=0;fillColor=none;top=0;left=0;bottom=0;right=0;align=left;spacingLeft=2;overflow=hidden;fontSize=11;" parent="X4feA5MgBI4GjkRbaJ-2-62" vertex="1">
          <mxGeometry x="337" width="22" height="44" as="geometry">
            <mxRectangle width="22" height="44" as="alternateBounds" />
          </mxGeometry>
        </mxCell>
        <mxCell id="X4feA5MgBI4GjkRbaJ-2-66" value="转换方式" style="shape=partialRectangle;connectable=0;fillColor=none;top=0;left=0;bottom=0;right=0;align=left;spacingLeft=2;overflow=hidden;fontSize=11;" parent="X4feA5MgBI4GjkRbaJ-2-62" vertex="1">
          <mxGeometry x="359" width="103" height="44" as="geometry">
            <mxRectangle width="103" height="44" as="alternateBounds" />
          </mxGeometry>
        </mxCell>
        <mxCell id="X4feA5MgBI4GjkRbaJ-2-67" style="shape=tableRow;horizontal=0;startSize=0;swimlaneHead=0;swimlaneBody=0;fillColor=none;collapsible=0;dropTarget=0;points=[[0,0.5],[1,0.5]];portConstraint=eastwest;top=0;left=0;right=0;bottom=0;" parent="X4feA5MgBI4GjkRbaJ-2-1" vertex="1">
          <mxGeometry y="597" width="462" height="44" as="geometry" />
        </mxCell>
        <mxCell id="X4feA5MgBI4GjkRbaJ-2-68" value="char" style="shape=partialRectangle;connectable=0;fillColor=none;top=0;left=0;bottom=0;right=0;align=left;spacingLeft=2;overflow=hidden;fontSize=11;" parent="X4feA5MgBI4GjkRbaJ-2-67" vertex="1">
          <mxGeometry width="48" height="44" as="geometry">
            <mxRectangle width="48" height="44" as="alternateBounds" />
          </mxGeometry>
        </mxCell>
        <mxCell id="X4feA5MgBI4GjkRbaJ-2-69" value="tool_type" style="shape=partialRectangle;connectable=0;fillColor=none;top=0;left=0;bottom=0;right=0;align=left;spacingLeft=2;overflow=hidden;fontSize=11;" parent="X4feA5MgBI4GjkRbaJ-2-67" vertex="1">
          <mxGeometry x="48" width="289" height="44" as="geometry">
            <mxRectangle width="289" height="44" as="alternateBounds" />
          </mxGeometry>
        </mxCell>
        <mxCell id="X4feA5MgBI4GjkRbaJ-2-70" value="" style="shape=partialRectangle;connectable=0;fillColor=none;top=0;left=0;bottom=0;right=0;align=left;spacingLeft=2;overflow=hidden;fontSize=11;" parent="X4feA5MgBI4GjkRbaJ-2-67" vertex="1">
          <mxGeometry x="337" width="22" height="44" as="geometry">
            <mxRectangle width="22" height="44" as="alternateBounds" />
          </mxGeometry>
        </mxCell>
        <mxCell id="X4feA5MgBI4GjkRbaJ-2-71" value="工具类型" style="shape=partialRectangle;connectable=0;fillColor=none;top=0;left=0;bottom=0;right=0;align=left;spacingLeft=2;overflow=hidden;fontSize=11;" parent="X4feA5MgBI4GjkRbaJ-2-67" vertex="1">
          <mxGeometry x="359" width="103" height="44" as="geometry">
            <mxRectangle width="103" height="44" as="alternateBounds" />
          </mxGeometry>
        </mxCell>
        <mxCell id="X4feA5MgBI4GjkRbaJ-2-72" value="expo_template_converter" style="shape=table;startSize=25;container=1;collapsible=0;childLayout=tableLayout;fixedRows=1;rowLines=1;fontStyle=1;align=center;resizeLast=1;" parent="1" vertex="1">
          <mxGeometry x="20" y="785" width="446" height="475" as="geometry" />
        </mxCell>
        <mxCell id="X4feA5MgBI4GjkRbaJ-2-73" style="shape=tableRow;horizontal=0;startSize=0;swimlaneHead=0;swimlaneBody=0;fillColor=none;collapsible=0;dropTarget=0;points=[[0,0.5],[1,0.5]];portConstraint=eastwest;top=0;left=0;right=0;bottom=0;" parent="X4feA5MgBI4GjkRbaJ-2-72" vertex="1">
          <mxGeometry y="25" width="446" height="45" as="geometry" />
        </mxCell>
        <mxCell id="X4feA5MgBI4GjkRbaJ-2-74" value="bigint" style="shape=partialRectangle;connectable=0;fillColor=none;top=0;left=0;bottom=0;right=0;align=left;spacingLeft=2;overflow=hidden;fontSize=11;" parent="X4feA5MgBI4GjkRbaJ-2-73" vertex="1">
          <mxGeometry width="48" height="45" as="geometry">
            <mxRectangle width="48" height="45" as="alternateBounds" />
          </mxGeometry>
        </mxCell>
        <mxCell id="X4feA5MgBI4GjkRbaJ-2-75" value="id" style="shape=partialRectangle;connectable=0;fillColor=none;top=0;left=0;bottom=0;right=0;align=left;spacingLeft=2;overflow=hidden;fontSize=11;" parent="X4feA5MgBI4GjkRbaJ-2-73" vertex="1">
          <mxGeometry x="48" width="286" height="45" as="geometry">
            <mxRectangle width="286" height="45" as="alternateBounds" />
          </mxGeometry>
        </mxCell>
        <mxCell id="X4feA5MgBI4GjkRbaJ-2-76" value="PK" style="shape=partialRectangle;connectable=0;fillColor=none;top=0;left=0;bottom=0;right=0;align=left;spacingLeft=2;overflow=hidden;fontSize=11;" parent="X4feA5MgBI4GjkRbaJ-2-73" vertex="1">
          <mxGeometry x="334" width="22" height="45" as="geometry">
            <mxRectangle width="22" height="45" as="alternateBounds" />
          </mxGeometry>
        </mxCell>
        <mxCell id="X4feA5MgBI4GjkRbaJ-2-77" value="主键" style="shape=partialRectangle;connectable=0;fillColor=none;top=0;left=0;bottom=0;right=0;align=left;spacingLeft=2;overflow=hidden;fontSize=11;" parent="X4feA5MgBI4GjkRbaJ-2-73" vertex="1">
          <mxGeometry x="356" width="90" height="45" as="geometry">
            <mxRectangle width="90" height="45" as="alternateBounds" />
          </mxGeometry>
        </mxCell>
        <mxCell id="X4feA5MgBI4GjkRbaJ-2-78" style="shape=tableRow;horizontal=0;startSize=0;swimlaneHead=0;swimlaneBody=0;fillColor=none;collapsible=0;dropTarget=0;points=[[0,0.5],[1,0.5]];portConstraint=eastwest;top=0;left=0;right=0;bottom=0;" parent="X4feA5MgBI4GjkRbaJ-2-72" vertex="1">
          <mxGeometry y="70" width="446" height="45" as="geometry" />
        </mxCell>
        <mxCell id="X4feA5MgBI4GjkRbaJ-2-79" value="datetime" style="shape=partialRectangle;connectable=0;fillColor=none;top=0;left=0;bottom=0;right=0;align=left;spacingLeft=2;overflow=hidden;fontSize=11;" parent="X4feA5MgBI4GjkRbaJ-2-78" vertex="1">
          <mxGeometry width="48" height="45" as="geometry">
            <mxRectangle width="48" height="45" as="alternateBounds" />
          </mxGeometry>
        </mxCell>
        <mxCell id="X4feA5MgBI4GjkRbaJ-2-80" value="create_time" style="shape=partialRectangle;connectable=0;fillColor=none;top=0;left=0;bottom=0;right=0;align=left;spacingLeft=2;overflow=hidden;fontSize=11;" parent="X4feA5MgBI4GjkRbaJ-2-78" vertex="1">
          <mxGeometry x="48" width="286" height="45" as="geometry">
            <mxRectangle width="286" height="45" as="alternateBounds" />
          </mxGeometry>
        </mxCell>
        <mxCell id="X4feA5MgBI4GjkRbaJ-2-81" value="" style="shape=partialRectangle;connectable=0;fillColor=none;top=0;left=0;bottom=0;right=0;align=left;spacingLeft=2;overflow=hidden;fontSize=11;" parent="X4feA5MgBI4GjkRbaJ-2-78" vertex="1">
          <mxGeometry x="334" width="22" height="45" as="geometry">
            <mxRectangle width="22" height="45" as="alternateBounds" />
          </mxGeometry>
        </mxCell>
        <mxCell id="X4feA5MgBI4GjkRbaJ-2-82" value="创建时间" style="shape=partialRectangle;connectable=0;fillColor=none;top=0;left=0;bottom=0;right=0;align=left;spacingLeft=2;overflow=hidden;fontSize=11;" parent="X4feA5MgBI4GjkRbaJ-2-78" vertex="1">
          <mxGeometry x="356" width="90" height="45" as="geometry">
            <mxRectangle width="90" height="45" as="alternateBounds" />
          </mxGeometry>
        </mxCell>
        <mxCell id="X4feA5MgBI4GjkRbaJ-2-83" style="shape=tableRow;horizontal=0;startSize=0;swimlaneHead=0;swimlaneBody=0;fillColor=none;collapsible=0;dropTarget=0;points=[[0,0.5],[1,0.5]];portConstraint=eastwest;top=0;left=0;right=0;bottom=0;" parent="X4feA5MgBI4GjkRbaJ-2-72" vertex="1">
          <mxGeometry y="115" width="446" height="45" as="geometry" />
        </mxCell>
        <mxCell id="X4feA5MgBI4GjkRbaJ-2-84" value="datetime" style="shape=partialRectangle;connectable=0;fillColor=none;top=0;left=0;bottom=0;right=0;align=left;spacingLeft=2;overflow=hidden;fontSize=11;" parent="X4feA5MgBI4GjkRbaJ-2-83" vertex="1">
          <mxGeometry width="48" height="45" as="geometry">
            <mxRectangle width="48" height="45" as="alternateBounds" />
          </mxGeometry>
        </mxCell>
        <mxCell id="X4feA5MgBI4GjkRbaJ-2-85" value="update_time" style="shape=partialRectangle;connectable=0;fillColor=none;top=0;left=0;bottom=0;right=0;align=left;spacingLeft=2;overflow=hidden;fontSize=11;" parent="X4feA5MgBI4GjkRbaJ-2-83" vertex="1">
          <mxGeometry x="48" width="286" height="45" as="geometry">
            <mxRectangle width="286" height="45" as="alternateBounds" />
          </mxGeometry>
        </mxCell>
        <mxCell id="X4feA5MgBI4GjkRbaJ-2-86" value="" style="shape=partialRectangle;connectable=0;fillColor=none;top=0;left=0;bottom=0;right=0;align=left;spacingLeft=2;overflow=hidden;fontSize=11;" parent="X4feA5MgBI4GjkRbaJ-2-83" vertex="1">
          <mxGeometry x="334" width="22" height="45" as="geometry">
            <mxRectangle width="22" height="45" as="alternateBounds" />
          </mxGeometry>
        </mxCell>
        <mxCell id="X4feA5MgBI4GjkRbaJ-2-87" value="更新时间" style="shape=partialRectangle;connectable=0;fillColor=none;top=0;left=0;bottom=0;right=0;align=left;spacingLeft=2;overflow=hidden;fontSize=11;" parent="X4feA5MgBI4GjkRbaJ-2-83" vertex="1">
          <mxGeometry x="356" width="90" height="45" as="geometry">
            <mxRectangle width="90" height="45" as="alternateBounds" />
          </mxGeometry>
        </mxCell>
        <mxCell id="X4feA5MgBI4GjkRbaJ-2-88" style="shape=tableRow;horizontal=0;startSize=0;swimlaneHead=0;swimlaneBody=0;fillColor=none;collapsible=0;dropTarget=0;points=[[0,0.5],[1,0.5]];portConstraint=eastwest;top=0;left=0;right=0;bottom=0;" parent="X4feA5MgBI4GjkRbaJ-2-72" vertex="1">
          <mxGeometry y="160" width="446" height="45" as="geometry" />
        </mxCell>
        <mxCell id="X4feA5MgBI4GjkRbaJ-2-89" value="bigint" style="shape=partialRectangle;connectable=0;fillColor=none;top=0;left=0;bottom=0;right=0;align=left;spacingLeft=2;overflow=hidden;fontSize=11;" parent="X4feA5MgBI4GjkRbaJ-2-88" vertex="1">
          <mxGeometry width="48" height="45" as="geometry">
            <mxRectangle width="48" height="45" as="alternateBounds" />
          </mxGeometry>
        </mxCell>
        <mxCell id="X4feA5MgBI4GjkRbaJ-2-90" value="tool_num" style="shape=partialRectangle;connectable=0;fillColor=none;top=0;left=0;bottom=0;right=0;align=left;spacingLeft=2;overflow=hidden;fontSize=11;" parent="X4feA5MgBI4GjkRbaJ-2-88" vertex="1">
          <mxGeometry x="48" width="286" height="45" as="geometry">
            <mxRectangle width="286" height="45" as="alternateBounds" />
          </mxGeometry>
        </mxCell>
        <mxCell id="X4feA5MgBI4GjkRbaJ-2-91" value="" style="shape=partialRectangle;connectable=0;fillColor=none;top=0;left=0;bottom=0;right=0;align=left;spacingLeft=2;overflow=hidden;fontSize=11;" parent="X4feA5MgBI4GjkRbaJ-2-88" vertex="1">
          <mxGeometry x="334" width="22" height="45" as="geometry">
            <mxRectangle width="22" height="45" as="alternateBounds" />
          </mxGeometry>
        </mxCell>
        <mxCell id="X4feA5MgBI4GjkRbaJ-2-92" value="工具编号" style="shape=partialRectangle;connectable=0;fillColor=none;top=0;left=0;bottom=0;right=0;align=left;spacingLeft=2;overflow=hidden;fontSize=11;" parent="X4feA5MgBI4GjkRbaJ-2-88" vertex="1">
          <mxGeometry x="356" width="90" height="45" as="geometry">
            <mxRectangle width="90" height="45" as="alternateBounds" />
          </mxGeometry>
        </mxCell>
        <mxCell id="X4feA5MgBI4GjkRbaJ-2-93" style="shape=tableRow;horizontal=0;startSize=0;swimlaneHead=0;swimlaneBody=0;fillColor=none;collapsible=0;dropTarget=0;points=[[0,0.5],[1,0.5]];portConstraint=eastwest;top=0;left=0;right=0;bottom=0;" parent="X4feA5MgBI4GjkRbaJ-2-72" vertex="1">
          <mxGeometry y="205" width="446" height="45" as="geometry" />
        </mxCell>
        <mxCell id="X4feA5MgBI4GjkRbaJ-2-94" value="bigint" style="shape=partialRectangle;connectable=0;fillColor=none;top=0;left=0;bottom=0;right=0;align=left;spacingLeft=2;overflow=hidden;fontSize=11;" parent="X4feA5MgBI4GjkRbaJ-2-93" vertex="1">
          <mxGeometry width="48" height="45" as="geometry">
            <mxRectangle width="48" height="45" as="alternateBounds" />
          </mxGeometry>
        </mxCell>
        <mxCell id="X4feA5MgBI4GjkRbaJ-2-95" value="tool_version" style="shape=partialRectangle;connectable=0;fillColor=none;top=0;left=0;bottom=0;right=0;align=left;spacingLeft=2;overflow=hidden;fontSize=11;" parent="X4feA5MgBI4GjkRbaJ-2-93" vertex="1">
          <mxGeometry x="48" width="286" height="45" as="geometry">
            <mxRectangle width="286" height="45" as="alternateBounds" />
          </mxGeometry>
        </mxCell>
        <mxCell id="X4feA5MgBI4GjkRbaJ-2-96" value="" style="shape=partialRectangle;connectable=0;fillColor=none;top=0;left=0;bottom=0;right=0;align=left;spacingLeft=2;overflow=hidden;fontSize=11;" parent="X4feA5MgBI4GjkRbaJ-2-93" vertex="1">
          <mxGeometry x="334" width="22" height="45" as="geometry">
            <mxRectangle width="22" height="45" as="alternateBounds" />
          </mxGeometry>
        </mxCell>
        <mxCell id="X4feA5MgBI4GjkRbaJ-2-97" value="工具版本" style="shape=partialRectangle;connectable=0;fillColor=none;top=0;left=0;bottom=0;right=0;align=left;spacingLeft=2;overflow=hidden;fontSize=11;" parent="X4feA5MgBI4GjkRbaJ-2-93" vertex="1">
          <mxGeometry x="356" width="90" height="45" as="geometry">
            <mxRectangle width="90" height="45" as="alternateBounds" />
          </mxGeometry>
        </mxCell>
        <mxCell id="X4feA5MgBI4GjkRbaJ-2-98" style="shape=tableRow;horizontal=0;startSize=0;swimlaneHead=0;swimlaneBody=0;fillColor=none;collapsible=0;dropTarget=0;points=[[0,0.5],[1,0.5]];portConstraint=eastwest;top=0;left=0;right=0;bottom=0;" parent="X4feA5MgBI4GjkRbaJ-2-72" vertex="1">
          <mxGeometry y="250" width="446" height="45" as="geometry" />
        </mxCell>
        <mxCell id="X4feA5MgBI4GjkRbaJ-2-99" value="int" style="shape=partialRectangle;connectable=0;fillColor=none;top=0;left=0;bottom=0;right=0;align=left;spacingLeft=2;overflow=hidden;fontSize=11;" parent="X4feA5MgBI4GjkRbaJ-2-98" vertex="1">
          <mxGeometry width="48" height="45" as="geometry">
            <mxRectangle width="48" height="45" as="alternateBounds" />
          </mxGeometry>
        </mxCell>
        <mxCell id="X4feA5MgBI4GjkRbaJ-2-100" value="app_class" style="shape=partialRectangle;connectable=0;fillColor=none;top=0;left=0;bottom=0;right=0;align=left;spacingLeft=2;overflow=hidden;fontSize=11;" parent="X4feA5MgBI4GjkRbaJ-2-98" vertex="1">
          <mxGeometry x="48" width="286" height="45" as="geometry">
            <mxRectangle width="286" height="45" as="alternateBounds" />
          </mxGeometry>
        </mxCell>
        <mxCell id="X4feA5MgBI4GjkRbaJ-2-101" value="" style="shape=partialRectangle;connectable=0;fillColor=none;top=0;left=0;bottom=0;right=0;align=left;spacingLeft=2;overflow=hidden;fontSize=11;" parent="X4feA5MgBI4GjkRbaJ-2-98" vertex="1">
          <mxGeometry x="334" width="22" height="45" as="geometry">
            <mxRectangle width="22" height="45" as="alternateBounds" />
          </mxGeometry>
        </mxCell>
        <mxCell id="X4feA5MgBI4GjkRbaJ-2-102" value="expo app class" style="shape=partialRectangle;connectable=0;fillColor=none;top=0;left=0;bottom=0;right=0;align=left;spacingLeft=2;overflow=hidden;fontSize=11;" parent="X4feA5MgBI4GjkRbaJ-2-98" vertex="1">
          <mxGeometry x="356" width="90" height="45" as="geometry">
            <mxRectangle width="90" height="45" as="alternateBounds" />
          </mxGeometry>
        </mxCell>
        <mxCell id="X4feA5MgBI4GjkRbaJ-2-103" style="shape=tableRow;horizontal=0;startSize=0;swimlaneHead=0;swimlaneBody=0;fillColor=none;collapsible=0;dropTarget=0;points=[[0,0.5],[1,0.5]];portConstraint=eastwest;top=0;left=0;right=0;bottom=0;" parent="X4feA5MgBI4GjkRbaJ-2-72" vertex="1">
          <mxGeometry y="295" width="446" height="45" as="geometry" />
        </mxCell>
        <mxCell id="X4feA5MgBI4GjkRbaJ-2-104" value="int" style="shape=partialRectangle;connectable=0;fillColor=none;top=0;left=0;bottom=0;right=0;align=left;spacingLeft=2;overflow=hidden;fontSize=11;" parent="X4feA5MgBI4GjkRbaJ-2-103" vertex="1">
          <mxGeometry width="48" height="45" as="geometry">
            <mxRectangle width="48" height="45" as="alternateBounds" />
          </mxGeometry>
        </mxCell>
        <mxCell id="X4feA5MgBI4GjkRbaJ-2-105" value="command_id" style="shape=partialRectangle;connectable=0;fillColor=none;top=0;left=0;bottom=0;right=0;align=left;spacingLeft=2;overflow=hidden;fontSize=11;" parent="X4feA5MgBI4GjkRbaJ-2-103" vertex="1">
          <mxGeometry x="48" width="286" height="45" as="geometry">
            <mxRectangle width="286" height="45" as="alternateBounds" />
          </mxGeometry>
        </mxCell>
        <mxCell id="X4feA5MgBI4GjkRbaJ-2-106" value="" style="shape=partialRectangle;connectable=0;fillColor=none;top=0;left=0;bottom=0;right=0;align=left;spacingLeft=2;overflow=hidden;fontSize=11;" parent="X4feA5MgBI4GjkRbaJ-2-103" vertex="1">
          <mxGeometry x="334" width="22" height="45" as="geometry">
            <mxRectangle width="22" height="45" as="alternateBounds" />
          </mxGeometry>
        </mxCell>
        <mxCell id="X4feA5MgBI4GjkRbaJ-2-107" value="expo command id" style="shape=partialRectangle;connectable=0;fillColor=none;top=0;left=0;bottom=0;right=0;align=left;spacingLeft=2;overflow=hidden;fontSize=11;" parent="X4feA5MgBI4GjkRbaJ-2-103" vertex="1">
          <mxGeometry x="356" width="90" height="45" as="geometry">
            <mxRectangle width="90" height="45" as="alternateBounds" />
          </mxGeometry>
        </mxCell>
        <mxCell id="X4feA5MgBI4GjkRbaJ-2-108" style="shape=tableRow;horizontal=0;startSize=0;swimlaneHead=0;swimlaneBody=0;fillColor=none;collapsible=0;dropTarget=0;points=[[0,0.5],[1,0.5]];portConstraint=eastwest;top=0;left=0;right=0;bottom=0;" parent="X4feA5MgBI4GjkRbaJ-2-72" vertex="1">
          <mxGeometry y="340" width="446" height="45" as="geometry" />
        </mxCell>
        <mxCell id="X4feA5MgBI4GjkRbaJ-2-109" value="text" style="shape=partialRectangle;connectable=0;fillColor=none;top=0;left=0;bottom=0;right=0;align=left;spacingLeft=2;overflow=hidden;fontSize=11;" parent="X4feA5MgBI4GjkRbaJ-2-108" vertex="1">
          <mxGeometry width="48" height="45" as="geometry">
            <mxRectangle width="48" height="45" as="alternateBounds" />
          </mxGeometry>
        </mxCell>
        <mxCell id="X4feA5MgBI4GjkRbaJ-2-110" value="input_args" style="shape=partialRectangle;connectable=0;fillColor=none;top=0;left=0;bottom=0;right=0;align=left;spacingLeft=2;overflow=hidden;fontSize=11;" parent="X4feA5MgBI4GjkRbaJ-2-108" vertex="1">
          <mxGeometry x="48" width="286" height="45" as="geometry">
            <mxRectangle width="286" height="45" as="alternateBounds" />
          </mxGeometry>
        </mxCell>
        <mxCell id="X4feA5MgBI4GjkRbaJ-2-111" value="" style="shape=partialRectangle;connectable=0;fillColor=none;top=0;left=0;bottom=0;right=0;align=left;spacingLeft=2;overflow=hidden;fontSize=11;" parent="X4feA5MgBI4GjkRbaJ-2-108" vertex="1">
          <mxGeometry x="334" width="22" height="45" as="geometry">
            <mxRectangle width="22" height="45" as="alternateBounds" />
          </mxGeometry>
        </mxCell>
        <mxCell id="X4feA5MgBI4GjkRbaJ-2-112" value="jinja2 模板" style="shape=partialRectangle;connectable=0;fillColor=none;top=0;left=0;bottom=0;right=0;align=left;spacingLeft=2;overflow=hidden;fontSize=11;" parent="X4feA5MgBI4GjkRbaJ-2-108" vertex="1">
          <mxGeometry x="356" width="90" height="45" as="geometry">
            <mxRectangle width="90" height="45" as="alternateBounds" />
          </mxGeometry>
        </mxCell>
        <mxCell id="X4feA5MgBI4GjkRbaJ-2-113" style="shape=tableRow;horizontal=0;startSize=0;swimlaneHead=0;swimlaneBody=0;fillColor=none;collapsible=0;dropTarget=0;points=[[0,0.5],[1,0.5]];portConstraint=eastwest;top=0;left=0;right=0;bottom=0;" parent="X4feA5MgBI4GjkRbaJ-2-72" vertex="1">
          <mxGeometry y="385" width="446" height="45" as="geometry" />
        </mxCell>
        <mxCell id="X4feA5MgBI4GjkRbaJ-2-114" value="text" style="shape=partialRectangle;connectable=0;fillColor=none;top=0;left=0;bottom=0;right=0;align=left;spacingLeft=2;overflow=hidden;fontSize=11;" parent="X4feA5MgBI4GjkRbaJ-2-113" vertex="1">
          <mxGeometry width="48" height="45" as="geometry">
            <mxRectangle width="48" height="45" as="alternateBounds" />
          </mxGeometry>
        </mxCell>
        <mxCell id="X4feA5MgBI4GjkRbaJ-2-115" value="output_args" style="shape=partialRectangle;connectable=0;fillColor=none;top=0;left=0;bottom=0;right=0;align=left;spacingLeft=2;overflow=hidden;fontSize=11;" parent="X4feA5MgBI4GjkRbaJ-2-113" vertex="1">
          <mxGeometry x="48" width="286" height="45" as="geometry">
            <mxRectangle width="286" height="45" as="alternateBounds" />
          </mxGeometry>
        </mxCell>
        <mxCell id="X4feA5MgBI4GjkRbaJ-2-116" value="" style="shape=partialRectangle;connectable=0;fillColor=none;top=0;left=0;bottom=0;right=0;align=left;spacingLeft=2;overflow=hidden;fontSize=11;" parent="X4feA5MgBI4GjkRbaJ-2-113" vertex="1">
          <mxGeometry x="334" width="22" height="45" as="geometry">
            <mxRectangle width="22" height="45" as="alternateBounds" />
          </mxGeometry>
        </mxCell>
        <mxCell id="X4feA5MgBI4GjkRbaJ-2-117" value="jinja2 模板" style="shape=partialRectangle;connectable=0;fillColor=none;top=0;left=0;bottom=0;right=0;align=left;spacingLeft=2;overflow=hidden;fontSize=11;" parent="X4feA5MgBI4GjkRbaJ-2-113" vertex="1">
          <mxGeometry x="356" width="90" height="45" as="geometry">
            <mxRectangle width="90" height="45" as="alternateBounds" />
          </mxGeometry>
        </mxCell>
        <mxCell id="X4feA5MgBI4GjkRbaJ-2-118" style="shape=tableRow;horizontal=0;startSize=0;swimlaneHead=0;swimlaneBody=0;fillColor=none;collapsible=0;dropTarget=0;points=[[0,0.5],[1,0.5]];portConstraint=eastwest;top=0;left=0;right=0;bottom=0;" parent="X4feA5MgBI4GjkRbaJ-2-72" vertex="1">
          <mxGeometry y="430" width="446" height="45" as="geometry" />
        </mxCell>
        <mxCell id="X4feA5MgBI4GjkRbaJ-2-119" value="bigint" style="shape=partialRectangle;connectable=0;fillColor=none;top=0;left=0;bottom=0;right=0;align=left;spacingLeft=2;overflow=hidden;fontSize=11;" parent="X4feA5MgBI4GjkRbaJ-2-118" vertex="1">
          <mxGeometry width="48" height="45" as="geometry">
            <mxRectangle width="48" height="45" as="alternateBounds" />
          </mxGeometry>
        </mxCell>
        <mxCell id="X4feA5MgBI4GjkRbaJ-2-120" value="provider_tool_num" style="shape=partialRectangle;connectable=0;fillColor=none;top=0;left=0;bottom=0;right=0;align=left;spacingLeft=2;overflow=hidden;fontSize=11;" parent="X4feA5MgBI4GjkRbaJ-2-118" vertex="1">
          <mxGeometry x="48" width="286" height="45" as="geometry">
            <mxRectangle width="286" height="45" as="alternateBounds" />
          </mxGeometry>
        </mxCell>
        <mxCell id="X4feA5MgBI4GjkRbaJ-2-121" value="FK" style="shape=partialRectangle;connectable=0;fillColor=none;top=0;left=0;bottom=0;right=0;align=left;spacingLeft=2;overflow=hidden;fontSize=11;" parent="X4feA5MgBI4GjkRbaJ-2-118" vertex="1">
          <mxGeometry x="334" width="22" height="45" as="geometry">
            <mxRectangle width="22" height="45" as="alternateBounds" />
          </mxGeometry>
        </mxCell>
        <mxCell id="X4feA5MgBI4GjkRbaJ-2-122" value="提供者工具编号" style="shape=partialRectangle;connectable=0;fillColor=none;top=0;left=0;bottom=0;right=0;align=left;spacingLeft=2;overflow=hidden;fontSize=11;" parent="X4feA5MgBI4GjkRbaJ-2-118" vertex="1">
          <mxGeometry x="356" width="90" height="45" as="geometry">
            <mxRectangle width="90" height="45" as="alternateBounds" />
          </mxGeometry>
        </mxCell>
        <mxCell id="X4feA5MgBI4GjkRbaJ-2-123" value="http_template_converter" style="shape=table;startSize=25;container=1;collapsible=0;childLayout=tableLayout;fixedRows=1;rowLines=1;fontStyle=1;align=center;resizeLast=1;" parent="1" vertex="1">
          <mxGeometry x="606" y="764" width="431" height="513" as="geometry" />
        </mxCell>
        <mxCell id="X4feA5MgBI4GjkRbaJ-2-124" style="shape=tableRow;horizontal=0;startSize=0;swimlaneHead=0;swimlaneBody=0;fillColor=none;collapsible=0;dropTarget=0;points=[[0,0.5],[1,0.5]];portConstraint=eastwest;top=0;left=0;right=0;bottom=0;" parent="X4feA5MgBI4GjkRbaJ-2-123" vertex="1">
          <mxGeometry y="25" width="431" height="44" as="geometry" />
        </mxCell>
        <mxCell id="X4feA5MgBI4GjkRbaJ-2-125" value="bigint" style="shape=partialRectangle;connectable=0;fillColor=none;top=0;left=0;bottom=0;right=0;align=left;spacingLeft=2;overflow=hidden;fontSize=11;" parent="X4feA5MgBI4GjkRbaJ-2-124" vertex="1">
          <mxGeometry width="48" height="44" as="geometry">
            <mxRectangle width="48" height="44" as="alternateBounds" />
          </mxGeometry>
        </mxCell>
        <mxCell id="X4feA5MgBI4GjkRbaJ-2-126" value="id" style="shape=partialRectangle;connectable=0;fillColor=none;top=0;left=0;bottom=0;right=0;align=left;spacingLeft=2;overflow=hidden;fontSize=11;" parent="X4feA5MgBI4GjkRbaJ-2-124" vertex="1">
          <mxGeometry x="48" width="319" height="44" as="geometry">
            <mxRectangle width="319" height="44" as="alternateBounds" />
          </mxGeometry>
        </mxCell>
        <mxCell id="X4feA5MgBI4GjkRbaJ-2-127" value="PK" style="shape=partialRectangle;connectable=0;fillColor=none;top=0;left=0;bottom=0;right=0;align=left;spacingLeft=2;overflow=hidden;fontSize=11;" parent="X4feA5MgBI4GjkRbaJ-2-124" vertex="1">
          <mxGeometry x="367" width="22" height="44" as="geometry">
            <mxRectangle width="22" height="44" as="alternateBounds" />
          </mxGeometry>
        </mxCell>
        <mxCell id="X4feA5MgBI4GjkRbaJ-2-128" value="主键" style="shape=partialRectangle;connectable=0;fillColor=none;top=0;left=0;bottom=0;right=0;align=left;spacingLeft=2;overflow=hidden;fontSize=11;" parent="X4feA5MgBI4GjkRbaJ-2-124" vertex="1">
          <mxGeometry x="389" width="42" height="44" as="geometry">
            <mxRectangle width="42" height="44" as="alternateBounds" />
          </mxGeometry>
        </mxCell>
        <mxCell id="X4feA5MgBI4GjkRbaJ-2-129" style="shape=tableRow;horizontal=0;startSize=0;swimlaneHead=0;swimlaneBody=0;fillColor=none;collapsible=0;dropTarget=0;points=[[0,0.5],[1,0.5]];portConstraint=eastwest;top=0;left=0;right=0;bottom=0;" parent="X4feA5MgBI4GjkRbaJ-2-123" vertex="1">
          <mxGeometry y="69" width="431" height="44" as="geometry" />
        </mxCell>
        <mxCell id="X4feA5MgBI4GjkRbaJ-2-130" value="datetime" style="shape=partialRectangle;connectable=0;fillColor=none;top=0;left=0;bottom=0;right=0;align=left;spacingLeft=2;overflow=hidden;fontSize=11;" parent="X4feA5MgBI4GjkRbaJ-2-129" vertex="1">
          <mxGeometry width="48" height="44" as="geometry">
            <mxRectangle width="48" height="44" as="alternateBounds" />
          </mxGeometry>
        </mxCell>
        <mxCell id="X4feA5MgBI4GjkRbaJ-2-131" value="create_time" style="shape=partialRectangle;connectable=0;fillColor=none;top=0;left=0;bottom=0;right=0;align=left;spacingLeft=2;overflow=hidden;fontSize=11;" parent="X4feA5MgBI4GjkRbaJ-2-129" vertex="1">
          <mxGeometry x="48" width="319" height="44" as="geometry">
            <mxRectangle width="319" height="44" as="alternateBounds" />
          </mxGeometry>
        </mxCell>
        <mxCell id="X4feA5MgBI4GjkRbaJ-2-132" value="" style="shape=partialRectangle;connectable=0;fillColor=none;top=0;left=0;bottom=0;right=0;align=left;spacingLeft=2;overflow=hidden;fontSize=11;" parent="X4feA5MgBI4GjkRbaJ-2-129" vertex="1">
          <mxGeometry x="367" width="22" height="44" as="geometry">
            <mxRectangle width="22" height="44" as="alternateBounds" />
          </mxGeometry>
        </mxCell>
        <mxCell id="X4feA5MgBI4GjkRbaJ-2-133" value="创建时间" style="shape=partialRectangle;connectable=0;fillColor=none;top=0;left=0;bottom=0;right=0;align=left;spacingLeft=2;overflow=hidden;fontSize=11;" parent="X4feA5MgBI4GjkRbaJ-2-129" vertex="1">
          <mxGeometry x="389" width="42" height="44" as="geometry">
            <mxRectangle width="42" height="44" as="alternateBounds" />
          </mxGeometry>
        </mxCell>
        <mxCell id="X4feA5MgBI4GjkRbaJ-2-134" style="shape=tableRow;horizontal=0;startSize=0;swimlaneHead=0;swimlaneBody=0;fillColor=none;collapsible=0;dropTarget=0;points=[[0,0.5],[1,0.5]];portConstraint=eastwest;top=0;left=0;right=0;bottom=0;" parent="X4feA5MgBI4GjkRbaJ-2-123" vertex="1">
          <mxGeometry y="113" width="431" height="44" as="geometry" />
        </mxCell>
        <mxCell id="X4feA5MgBI4GjkRbaJ-2-135" value="datetime" style="shape=partialRectangle;connectable=0;fillColor=none;top=0;left=0;bottom=0;right=0;align=left;spacingLeft=2;overflow=hidden;fontSize=11;" parent="X4feA5MgBI4GjkRbaJ-2-134" vertex="1">
          <mxGeometry width="48" height="44" as="geometry">
            <mxRectangle width="48" height="44" as="alternateBounds" />
          </mxGeometry>
        </mxCell>
        <mxCell id="X4feA5MgBI4GjkRbaJ-2-136" value="update_time" style="shape=partialRectangle;connectable=0;fillColor=none;top=0;left=0;bottom=0;right=0;align=left;spacingLeft=2;overflow=hidden;fontSize=11;" parent="X4feA5MgBI4GjkRbaJ-2-134" vertex="1">
          <mxGeometry x="48" width="319" height="44" as="geometry">
            <mxRectangle width="319" height="44" as="alternateBounds" />
          </mxGeometry>
        </mxCell>
        <mxCell id="X4feA5MgBI4GjkRbaJ-2-137" value="" style="shape=partialRectangle;connectable=0;fillColor=none;top=0;left=0;bottom=0;right=0;align=left;spacingLeft=2;overflow=hidden;fontSize=11;" parent="X4feA5MgBI4GjkRbaJ-2-134" vertex="1">
          <mxGeometry x="367" width="22" height="44" as="geometry">
            <mxRectangle width="22" height="44" as="alternateBounds" />
          </mxGeometry>
        </mxCell>
        <mxCell id="X4feA5MgBI4GjkRbaJ-2-138" value="更新时间" style="shape=partialRectangle;connectable=0;fillColor=none;top=0;left=0;bottom=0;right=0;align=left;spacingLeft=2;overflow=hidden;fontSize=11;" parent="X4feA5MgBI4GjkRbaJ-2-134" vertex="1">
          <mxGeometry x="389" width="42" height="44" as="geometry">
            <mxRectangle width="42" height="44" as="alternateBounds" />
          </mxGeometry>
        </mxCell>
        <mxCell id="X4feA5MgBI4GjkRbaJ-2-139" style="shape=tableRow;horizontal=0;startSize=0;swimlaneHead=0;swimlaneBody=0;fillColor=none;collapsible=0;dropTarget=0;points=[[0,0.5],[1,0.5]];portConstraint=eastwest;top=0;left=0;right=0;bottom=0;" parent="X4feA5MgBI4GjkRbaJ-2-123" vertex="1">
          <mxGeometry y="157" width="431" height="44" as="geometry" />
        </mxCell>
        <mxCell id="X4feA5MgBI4GjkRbaJ-2-140" value="bigint" style="shape=partialRectangle;connectable=0;fillColor=none;top=0;left=0;bottom=0;right=0;align=left;spacingLeft=2;overflow=hidden;fontSize=11;" parent="X4feA5MgBI4GjkRbaJ-2-139" vertex="1">
          <mxGeometry width="48" height="44" as="geometry">
            <mxRectangle width="48" height="44" as="alternateBounds" />
          </mxGeometry>
        </mxCell>
        <mxCell id="X4feA5MgBI4GjkRbaJ-2-141" value="tool_num" style="shape=partialRectangle;connectable=0;fillColor=none;top=0;left=0;bottom=0;right=0;align=left;spacingLeft=2;overflow=hidden;fontSize=11;" parent="X4feA5MgBI4GjkRbaJ-2-139" vertex="1">
          <mxGeometry x="48" width="319" height="44" as="geometry">
            <mxRectangle width="319" height="44" as="alternateBounds" />
          </mxGeometry>
        </mxCell>
        <mxCell id="X4feA5MgBI4GjkRbaJ-2-142" value="" style="shape=partialRectangle;connectable=0;fillColor=none;top=0;left=0;bottom=0;right=0;align=left;spacingLeft=2;overflow=hidden;fontSize=11;" parent="X4feA5MgBI4GjkRbaJ-2-139" vertex="1">
          <mxGeometry x="367" width="22" height="44" as="geometry">
            <mxRectangle width="22" height="44" as="alternateBounds" />
          </mxGeometry>
        </mxCell>
        <mxCell id="X4feA5MgBI4GjkRbaJ-2-143" value="工具编号" style="shape=partialRectangle;connectable=0;fillColor=none;top=0;left=0;bottom=0;right=0;align=left;spacingLeft=2;overflow=hidden;fontSize=11;" parent="X4feA5MgBI4GjkRbaJ-2-139" vertex="1">
          <mxGeometry x="389" width="42" height="44" as="geometry">
            <mxRectangle width="42" height="44" as="alternateBounds" />
          </mxGeometry>
        </mxCell>
        <mxCell id="X4feA5MgBI4GjkRbaJ-2-144" style="shape=tableRow;horizontal=0;startSize=0;swimlaneHead=0;swimlaneBody=0;fillColor=none;collapsible=0;dropTarget=0;points=[[0,0.5],[1,0.5]];portConstraint=eastwest;top=0;left=0;right=0;bottom=0;" parent="X4feA5MgBI4GjkRbaJ-2-123" vertex="1">
          <mxGeometry y="201" width="431" height="44" as="geometry" />
        </mxCell>
        <mxCell id="X4feA5MgBI4GjkRbaJ-2-145" value="bigint" style="shape=partialRectangle;connectable=0;fillColor=none;top=0;left=0;bottom=0;right=0;align=left;spacingLeft=2;overflow=hidden;fontSize=11;" parent="X4feA5MgBI4GjkRbaJ-2-144" vertex="1">
          <mxGeometry width="48" height="44" as="geometry">
            <mxRectangle width="48" height="44" as="alternateBounds" />
          </mxGeometry>
        </mxCell>
        <mxCell id="X4feA5MgBI4GjkRbaJ-2-146" value="tool_version" style="shape=partialRectangle;connectable=0;fillColor=none;top=0;left=0;bottom=0;right=0;align=left;spacingLeft=2;overflow=hidden;fontSize=11;" parent="X4feA5MgBI4GjkRbaJ-2-144" vertex="1">
          <mxGeometry x="48" width="319" height="44" as="geometry">
            <mxRectangle width="319" height="44" as="alternateBounds" />
          </mxGeometry>
        </mxCell>
        <mxCell id="X4feA5MgBI4GjkRbaJ-2-147" value="" style="shape=partialRectangle;connectable=0;fillColor=none;top=0;left=0;bottom=0;right=0;align=left;spacingLeft=2;overflow=hidden;fontSize=11;" parent="X4feA5MgBI4GjkRbaJ-2-144" vertex="1">
          <mxGeometry x="367" width="22" height="44" as="geometry">
            <mxRectangle width="22" height="44" as="alternateBounds" />
          </mxGeometry>
        </mxCell>
        <mxCell id="X4feA5MgBI4GjkRbaJ-2-148" value="工具版本" style="shape=partialRectangle;connectable=0;fillColor=none;top=0;left=0;bottom=0;right=0;align=left;spacingLeft=2;overflow=hidden;fontSize=11;" parent="X4feA5MgBI4GjkRbaJ-2-144" vertex="1">
          <mxGeometry x="389" width="42" height="44" as="geometry">
            <mxRectangle width="42" height="44" as="alternateBounds" />
          </mxGeometry>
        </mxCell>
        <mxCell id="X4feA5MgBI4GjkRbaJ-2-149" style="shape=tableRow;horizontal=0;startSize=0;swimlaneHead=0;swimlaneBody=0;fillColor=none;collapsible=0;dropTarget=0;points=[[0,0.5],[1,0.5]];portConstraint=eastwest;top=0;left=0;right=0;bottom=0;" parent="X4feA5MgBI4GjkRbaJ-2-123" vertex="1">
          <mxGeometry y="245" width="431" height="44" as="geometry" />
        </mxCell>
        <mxCell id="X4feA5MgBI4GjkRbaJ-2-150" value="varchar" style="shape=partialRectangle;connectable=0;fillColor=none;top=0;left=0;bottom=0;right=0;align=left;spacingLeft=2;overflow=hidden;fontSize=11;" parent="X4feA5MgBI4GjkRbaJ-2-149" vertex="1">
          <mxGeometry width="48" height="44" as="geometry">
            <mxRectangle width="48" height="44" as="alternateBounds" />
          </mxGeometry>
        </mxCell>
        <mxCell id="X4feA5MgBI4GjkRbaJ-2-151" value="req_url" style="shape=partialRectangle;connectable=0;fillColor=none;top=0;left=0;bottom=0;right=0;align=left;spacingLeft=2;overflow=hidden;fontSize=11;" parent="X4feA5MgBI4GjkRbaJ-2-149" vertex="1">
          <mxGeometry x="48" width="319" height="44" as="geometry">
            <mxRectangle width="319" height="44" as="alternateBounds" />
          </mxGeometry>
        </mxCell>
        <mxCell id="X4feA5MgBI4GjkRbaJ-2-152" value="" style="shape=partialRectangle;connectable=0;fillColor=none;top=0;left=0;bottom=0;right=0;align=left;spacingLeft=2;overflow=hidden;fontSize=11;" parent="X4feA5MgBI4GjkRbaJ-2-149" vertex="1">
          <mxGeometry x="367" width="22" height="44" as="geometry">
            <mxRectangle width="22" height="44" as="alternateBounds" />
          </mxGeometry>
        </mxCell>
        <mxCell id="X4feA5MgBI4GjkRbaJ-2-153" value="http请求" style="shape=partialRectangle;connectable=0;fillColor=none;top=0;left=0;bottom=0;right=0;align=left;spacingLeft=2;overflow=hidden;fontSize=11;" parent="X4feA5MgBI4GjkRbaJ-2-149" vertex="1">
          <mxGeometry x="389" width="42" height="44" as="geometry">
            <mxRectangle width="42" height="44" as="alternateBounds" />
          </mxGeometry>
        </mxCell>
        <mxCell id="X4feA5MgBI4GjkRbaJ-2-154" style="shape=tableRow;horizontal=0;startSize=0;swimlaneHead=0;swimlaneBody=0;fillColor=none;collapsible=0;dropTarget=0;points=[[0,0.5],[1,0.5]];portConstraint=eastwest;top=0;left=0;right=0;bottom=0;" parent="X4feA5MgBI4GjkRbaJ-2-123" vertex="1">
          <mxGeometry y="289" width="431" height="44" as="geometry" />
        </mxCell>
        <mxCell id="X4feA5MgBI4GjkRbaJ-2-155" value="varchar" style="shape=partialRectangle;connectable=0;fillColor=none;top=0;left=0;bottom=0;right=0;align=left;spacingLeft=2;overflow=hidden;fontSize=11;" parent="X4feA5MgBI4GjkRbaJ-2-154" vertex="1">
          <mxGeometry width="48" height="44" as="geometry">
            <mxRectangle width="48" height="44" as="alternateBounds" />
          </mxGeometry>
        </mxCell>
        <mxCell id="X4feA5MgBI4GjkRbaJ-2-156" value="req_method" style="shape=partialRectangle;connectable=0;fillColor=none;top=0;left=0;bottom=0;right=0;align=left;spacingLeft=2;overflow=hidden;fontSize=11;" parent="X4feA5MgBI4GjkRbaJ-2-154" vertex="1">
          <mxGeometry x="48" width="319" height="44" as="geometry">
            <mxRectangle width="319" height="44" as="alternateBounds" />
          </mxGeometry>
        </mxCell>
        <mxCell id="X4feA5MgBI4GjkRbaJ-2-157" value="" style="shape=partialRectangle;connectable=0;fillColor=none;top=0;left=0;bottom=0;right=0;align=left;spacingLeft=2;overflow=hidden;fontSize=11;" parent="X4feA5MgBI4GjkRbaJ-2-154" vertex="1">
          <mxGeometry x="367" width="22" height="44" as="geometry">
            <mxRectangle width="22" height="44" as="alternateBounds" />
          </mxGeometry>
        </mxCell>
        <mxCell id="X4feA5MgBI4GjkRbaJ-2-158" value="请求方法" style="shape=partialRectangle;connectable=0;fillColor=none;top=0;left=0;bottom=0;right=0;align=left;spacingLeft=2;overflow=hidden;fontSize=11;" parent="X4feA5MgBI4GjkRbaJ-2-154" vertex="1">
          <mxGeometry x="389" width="42" height="44" as="geometry">
            <mxRectangle width="42" height="44" as="alternateBounds" />
          </mxGeometry>
        </mxCell>
        <mxCell id="X4feA5MgBI4GjkRbaJ-2-159" style="shape=tableRow;horizontal=0;startSize=0;swimlaneHead=0;swimlaneBody=0;fillColor=none;collapsible=0;dropTarget=0;points=[[0,0.5],[1,0.5]];portConstraint=eastwest;top=0;left=0;right=0;bottom=0;" parent="X4feA5MgBI4GjkRbaJ-2-123" vertex="1">
          <mxGeometry y="333" width="431" height="44" as="geometry" />
        </mxCell>
        <mxCell id="X4feA5MgBI4GjkRbaJ-2-160" value="varchar" style="shape=partialRectangle;connectable=0;fillColor=none;top=0;left=0;bottom=0;right=0;align=left;spacingLeft=2;overflow=hidden;fontSize=11;" parent="X4feA5MgBI4GjkRbaJ-2-159" vertex="1">
          <mxGeometry width="48" height="44" as="geometry">
            <mxRectangle width="48" height="44" as="alternateBounds" />
          </mxGeometry>
        </mxCell>
        <mxCell id="X4feA5MgBI4GjkRbaJ-2-161" value="req_headers" style="shape=partialRectangle;connectable=0;fillColor=none;top=0;left=0;bottom=0;right=0;align=left;spacingLeft=2;overflow=hidden;fontSize=11;" parent="X4feA5MgBI4GjkRbaJ-2-159" vertex="1">
          <mxGeometry x="48" width="319" height="44" as="geometry">
            <mxRectangle width="319" height="44" as="alternateBounds" />
          </mxGeometry>
        </mxCell>
        <mxCell id="X4feA5MgBI4GjkRbaJ-2-162" value="" style="shape=partialRectangle;connectable=0;fillColor=none;top=0;left=0;bottom=0;right=0;align=left;spacingLeft=2;overflow=hidden;fontSize=11;" parent="X4feA5MgBI4GjkRbaJ-2-159" vertex="1">
          <mxGeometry x="367" width="22" height="44" as="geometry">
            <mxRectangle width="22" height="44" as="alternateBounds" />
          </mxGeometry>
        </mxCell>
        <mxCell id="X4feA5MgBI4GjkRbaJ-2-163" value="请求头" style="shape=partialRectangle;connectable=0;fillColor=none;top=0;left=0;bottom=0;right=0;align=left;spacingLeft=2;overflow=hidden;fontSize=11;" parent="X4feA5MgBI4GjkRbaJ-2-159" vertex="1">
          <mxGeometry x="389" width="42" height="44" as="geometry">
            <mxRectangle width="42" height="44" as="alternateBounds" />
          </mxGeometry>
        </mxCell>
        <mxCell id="X4feA5MgBI4GjkRbaJ-2-164" style="shape=tableRow;horizontal=0;startSize=0;swimlaneHead=0;swimlaneBody=0;fillColor=none;collapsible=0;dropTarget=0;points=[[0,0.5],[1,0.5]];portConstraint=eastwest;top=0;left=0;right=0;bottom=0;" parent="X4feA5MgBI4GjkRbaJ-2-123" vertex="1">
          <mxGeometry y="377" width="431" height="44" as="geometry" />
        </mxCell>
        <mxCell id="X4feA5MgBI4GjkRbaJ-2-165" value="text" style="shape=partialRectangle;connectable=0;fillColor=none;top=0;left=0;bottom=0;right=0;align=left;spacingLeft=2;overflow=hidden;fontSize=11;" parent="X4feA5MgBI4GjkRbaJ-2-164" vertex="1">
          <mxGeometry width="48" height="44" as="geometry">
            <mxRectangle width="48" height="44" as="alternateBounds" />
          </mxGeometry>
        </mxCell>
        <mxCell id="X4feA5MgBI4GjkRbaJ-2-166" value="req_body" style="shape=partialRectangle;connectable=0;fillColor=none;top=0;left=0;bottom=0;right=0;align=left;spacingLeft=2;overflow=hidden;fontSize=11;" parent="X4feA5MgBI4GjkRbaJ-2-164" vertex="1">
          <mxGeometry x="48" width="319" height="44" as="geometry">
            <mxRectangle width="319" height="44" as="alternateBounds" />
          </mxGeometry>
        </mxCell>
        <mxCell id="X4feA5MgBI4GjkRbaJ-2-167" value="" style="shape=partialRectangle;connectable=0;fillColor=none;top=0;left=0;bottom=0;right=0;align=left;spacingLeft=2;overflow=hidden;fontSize=11;" parent="X4feA5MgBI4GjkRbaJ-2-164" vertex="1">
          <mxGeometry x="367" width="22" height="44" as="geometry">
            <mxRectangle width="22" height="44" as="alternateBounds" />
          </mxGeometry>
        </mxCell>
        <mxCell id="X4feA5MgBI4GjkRbaJ-2-168" value="请求体" style="shape=partialRectangle;connectable=0;fillColor=none;top=0;left=0;bottom=0;right=0;align=left;spacingLeft=2;overflow=hidden;fontSize=11;" parent="X4feA5MgBI4GjkRbaJ-2-164" vertex="1">
          <mxGeometry x="389" width="42" height="44" as="geometry">
            <mxRectangle width="42" height="44" as="alternateBounds" />
          </mxGeometry>
        </mxCell>
        <mxCell id="X4feA5MgBI4GjkRbaJ-2-169" style="shape=tableRow;horizontal=0;startSize=0;swimlaneHead=0;swimlaneBody=0;fillColor=none;collapsible=0;dropTarget=0;points=[[0,0.5],[1,0.5]];portConstraint=eastwest;top=0;left=0;right=0;bottom=0;" parent="X4feA5MgBI4GjkRbaJ-2-123" vertex="1">
          <mxGeometry y="421" width="431" height="44" as="geometry" />
        </mxCell>
        <mxCell id="X4feA5MgBI4GjkRbaJ-2-170" value="text" style="shape=partialRectangle;connectable=0;fillColor=none;top=0;left=0;bottom=0;right=0;align=left;spacingLeft=2;overflow=hidden;fontSize=11;" parent="X4feA5MgBI4GjkRbaJ-2-169" vertex="1">
          <mxGeometry width="48" height="44" as="geometry">
            <mxRectangle width="48" height="44" as="alternateBounds" />
          </mxGeometry>
        </mxCell>
        <mxCell id="X4feA5MgBI4GjkRbaJ-2-171" value="resp_body" style="shape=partialRectangle;connectable=0;fillColor=none;top=0;left=0;bottom=0;right=0;align=left;spacingLeft=2;overflow=hidden;fontSize=11;" parent="X4feA5MgBI4GjkRbaJ-2-169" vertex="1">
          <mxGeometry x="48" width="319" height="44" as="geometry">
            <mxRectangle width="319" height="44" as="alternateBounds" />
          </mxGeometry>
        </mxCell>
        <mxCell id="X4feA5MgBI4GjkRbaJ-2-172" value="" style="shape=partialRectangle;connectable=0;fillColor=none;top=0;left=0;bottom=0;right=0;align=left;spacingLeft=2;overflow=hidden;fontSize=11;" parent="X4feA5MgBI4GjkRbaJ-2-169" vertex="1">
          <mxGeometry x="367" width="22" height="44" as="geometry">
            <mxRectangle width="22" height="44" as="alternateBounds" />
          </mxGeometry>
        </mxCell>
        <mxCell id="X4feA5MgBI4GjkRbaJ-2-173" value="响应体" style="shape=partialRectangle;connectable=0;fillColor=none;top=0;left=0;bottom=0;right=0;align=left;spacingLeft=2;overflow=hidden;fontSize=11;" parent="X4feA5MgBI4GjkRbaJ-2-169" vertex="1">
          <mxGeometry x="389" width="42" height="44" as="geometry">
            <mxRectangle width="42" height="44" as="alternateBounds" />
          </mxGeometry>
        </mxCell>
        <mxCell id="X4feA5MgBI4GjkRbaJ-2-174" style="shape=tableRow;horizontal=0;startSize=0;swimlaneHead=0;swimlaneBody=0;fillColor=none;collapsible=0;dropTarget=0;points=[[0,0.5],[1,0.5]];portConstraint=eastwest;top=0;left=0;right=0;bottom=0;" parent="X4feA5MgBI4GjkRbaJ-2-123" vertex="1">
          <mxGeometry y="465" width="431" height="44" as="geometry" />
        </mxCell>
        <mxCell id="X4feA5MgBI4GjkRbaJ-2-175" value="bigint" style="shape=partialRectangle;connectable=0;fillColor=none;top=0;left=0;bottom=0;right=0;align=left;spacingLeft=2;overflow=hidden;fontSize=11;" parent="X4feA5MgBI4GjkRbaJ-2-174" vertex="1">
          <mxGeometry width="48" height="44" as="geometry">
            <mxRectangle width="48" height="44" as="alternateBounds" />
          </mxGeometry>
        </mxCell>
        <mxCell id="X4feA5MgBI4GjkRbaJ-2-176" value="provider_tool_num" style="shape=partialRectangle;connectable=0;fillColor=none;top=0;left=0;bottom=0;right=0;align=left;spacingLeft=2;overflow=hidden;fontSize=11;" parent="X4feA5MgBI4GjkRbaJ-2-174" vertex="1">
          <mxGeometry x="48" width="319" height="44" as="geometry">
            <mxRectangle width="319" height="44" as="alternateBounds" />
          </mxGeometry>
        </mxCell>
        <mxCell id="X4feA5MgBI4GjkRbaJ-2-177" value="FK" style="shape=partialRectangle;connectable=0;fillColor=none;top=0;left=0;bottom=0;right=0;align=left;spacingLeft=2;overflow=hidden;fontSize=11;" parent="X4feA5MgBI4GjkRbaJ-2-174" vertex="1">
          <mxGeometry x="367" width="22" height="44" as="geometry">
            <mxRectangle width="22" height="44" as="alternateBounds" />
          </mxGeometry>
        </mxCell>
        <mxCell id="X4feA5MgBI4GjkRbaJ-2-178" value="提供者工具编号" style="shape=partialRectangle;connectable=0;fillColor=none;top=0;left=0;bottom=0;right=0;align=left;spacingLeft=2;overflow=hidden;fontSize=11;" parent="X4feA5MgBI4GjkRbaJ-2-174" vertex="1">
          <mxGeometry x="389" width="42" height="44" as="geometry">
            <mxRectangle width="42" height="44" as="alternateBounds" />
          </mxGeometry>
        </mxCell>
        <mxCell id="X4feA5MgBI4GjkRbaJ-2-179" value="vserver_items" style="shape=table;startSize=25;container=1;collapsible=0;childLayout=tableLayout;fixedRows=1;rowLines=1;fontStyle=1;align=center;resizeLast=1;" parent="1" vertex="1">
          <mxGeometry x="1177" y="871" width="378" height="301" as="geometry" />
        </mxCell>
        <mxCell id="X4feA5MgBI4GjkRbaJ-2-180" style="shape=tableRow;horizontal=0;startSize=0;swimlaneHead=0;swimlaneBody=0;fillColor=none;collapsible=0;dropTarget=0;points=[[0,0.5],[1,0.5]];portConstraint=eastwest;top=0;left=0;right=0;bottom=0;" parent="X4feA5MgBI4GjkRbaJ-2-179" vertex="1">
          <mxGeometry y="25" width="378" height="46" as="geometry" />
        </mxCell>
        <mxCell id="X4feA5MgBI4GjkRbaJ-2-181" value="bigint" style="shape=partialRectangle;connectable=0;fillColor=none;top=0;left=0;bottom=0;right=0;align=left;spacingLeft=2;overflow=hidden;fontSize=11;" parent="X4feA5MgBI4GjkRbaJ-2-180" vertex="1">
          <mxGeometry width="42" height="46" as="geometry">
            <mxRectangle width="42" height="46" as="alternateBounds" />
          </mxGeometry>
        </mxCell>
        <mxCell id="X4feA5MgBI4GjkRbaJ-2-182" value="id" style="shape=partialRectangle;connectable=0;fillColor=none;top=0;left=0;bottom=0;right=0;align=left;spacingLeft=2;overflow=hidden;fontSize=11;" parent="X4feA5MgBI4GjkRbaJ-2-180" vertex="1">
          <mxGeometry x="42" width="272" height="46" as="geometry">
            <mxRectangle width="272" height="46" as="alternateBounds" />
          </mxGeometry>
        </mxCell>
        <mxCell id="X4feA5MgBI4GjkRbaJ-2-183" value="PK" style="shape=partialRectangle;connectable=0;fillColor=none;top=0;left=0;bottom=0;right=0;align=left;spacingLeft=2;overflow=hidden;fontSize=11;" parent="X4feA5MgBI4GjkRbaJ-2-180" vertex="1">
          <mxGeometry x="314" width="22" height="46" as="geometry">
            <mxRectangle width="22" height="46" as="alternateBounds" />
          </mxGeometry>
        </mxCell>
        <mxCell id="X4feA5MgBI4GjkRbaJ-2-184" value="主键" style="shape=partialRectangle;connectable=0;fillColor=none;top=0;left=0;bottom=0;right=0;align=left;spacingLeft=2;overflow=hidden;fontSize=11;" parent="X4feA5MgBI4GjkRbaJ-2-180" vertex="1">
          <mxGeometry x="336" width="42" height="46" as="geometry">
            <mxRectangle width="42" height="46" as="alternateBounds" />
          </mxGeometry>
        </mxCell>
        <mxCell id="X4feA5MgBI4GjkRbaJ-2-185" style="shape=tableRow;horizontal=0;startSize=0;swimlaneHead=0;swimlaneBody=0;fillColor=none;collapsible=0;dropTarget=0;points=[[0,0.5],[1,0.5]];portConstraint=eastwest;top=0;left=0;right=0;bottom=0;" parent="X4feA5MgBI4GjkRbaJ-2-179" vertex="1">
          <mxGeometry y="71" width="378" height="46" as="geometry" />
        </mxCell>
        <mxCell id="X4feA5MgBI4GjkRbaJ-2-186" value="varchar" style="shape=partialRectangle;connectable=0;fillColor=none;top=0;left=0;bottom=0;right=0;align=left;spacingLeft=2;overflow=hidden;fontSize=11;" parent="X4feA5MgBI4GjkRbaJ-2-185" vertex="1">
          <mxGeometry width="42" height="46" as="geometry">
            <mxRectangle width="42" height="46" as="alternateBounds" />
          </mxGeometry>
        </mxCell>
        <mxCell id="X4feA5MgBI4GjkRbaJ-2-187" value="vserver_id" style="shape=partialRectangle;connectable=0;fillColor=none;top=0;left=0;bottom=0;right=0;align=left;spacingLeft=2;overflow=hidden;fontSize=11;" parent="X4feA5MgBI4GjkRbaJ-2-185" vertex="1">
          <mxGeometry x="42" width="272" height="46" as="geometry">
            <mxRectangle width="272" height="46" as="alternateBounds" />
          </mxGeometry>
        </mxCell>
        <mxCell id="X4feA5MgBI4GjkRbaJ-2-188" value="FK" style="shape=partialRectangle;connectable=0;fillColor=none;top=0;left=0;bottom=0;right=0;align=left;spacingLeft=2;overflow=hidden;fontSize=11;" parent="X4feA5MgBI4GjkRbaJ-2-185" vertex="1">
          <mxGeometry x="314" width="22" height="46" as="geometry">
            <mxRectangle width="22" height="46" as="alternateBounds" />
          </mxGeometry>
        </mxCell>
        <mxCell id="X4feA5MgBI4GjkRbaJ-2-189" value="虚拟服务器id" style="shape=partialRectangle;connectable=0;fillColor=none;top=0;left=0;bottom=0;right=0;align=left;spacingLeft=2;overflow=hidden;fontSize=11;" parent="X4feA5MgBI4GjkRbaJ-2-185" vertex="1">
          <mxGeometry x="336" width="42" height="46" as="geometry">
            <mxRectangle width="42" height="46" as="alternateBounds" />
          </mxGeometry>
        </mxCell>
        <mxCell id="X4feA5MgBI4GjkRbaJ-2-190" style="shape=tableRow;horizontal=0;startSize=0;swimlaneHead=0;swimlaneBody=0;fillColor=none;collapsible=0;dropTarget=0;points=[[0,0.5],[1,0.5]];portConstraint=eastwest;top=0;left=0;right=0;bottom=0;" parent="X4feA5MgBI4GjkRbaJ-2-179" vertex="1">
          <mxGeometry y="117" width="378" height="46" as="geometry" />
        </mxCell>
        <mxCell id="X4feA5MgBI4GjkRbaJ-2-191" value="bigint" style="shape=partialRectangle;connectable=0;fillColor=none;top=0;left=0;bottom=0;right=0;align=left;spacingLeft=2;overflow=hidden;fontSize=11;" parent="X4feA5MgBI4GjkRbaJ-2-190" vertex="1">
          <mxGeometry width="42" height="46" as="geometry">
            <mxRectangle width="42" height="46" as="alternateBounds" />
          </mxGeometry>
        </mxCell>
        <mxCell id="X4feA5MgBI4GjkRbaJ-2-192" value="mcp_item_num" style="shape=partialRectangle;connectable=0;fillColor=none;top=0;left=0;bottom=0;right=0;align=left;spacingLeft=2;overflow=hidden;fontSize=11;" parent="X4feA5MgBI4GjkRbaJ-2-190" vertex="1">
          <mxGeometry x="42" width="272" height="46" as="geometry">
            <mxRectangle width="272" height="46" as="alternateBounds" />
          </mxGeometry>
        </mxCell>
        <mxCell id="X4feA5MgBI4GjkRbaJ-2-193" value="" style="shape=partialRectangle;connectable=0;fillColor=none;top=0;left=0;bottom=0;right=0;align=left;spacingLeft=2;overflow=hidden;fontSize=11;" parent="X4feA5MgBI4GjkRbaJ-2-190" vertex="1">
          <mxGeometry x="314" width="22" height="46" as="geometry">
            <mxRectangle width="22" height="46" as="alternateBounds" />
          </mxGeometry>
        </mxCell>
        <mxCell id="X4feA5MgBI4GjkRbaJ-2-194" value="mcp项目编号" style="shape=partialRectangle;connectable=0;fillColor=none;top=0;left=0;bottom=0;right=0;align=left;spacingLeft=2;overflow=hidden;fontSize=11;" parent="X4feA5MgBI4GjkRbaJ-2-190" vertex="1">
          <mxGeometry x="336" width="42" height="46" as="geometry">
            <mxRectangle width="42" height="46" as="alternateBounds" />
          </mxGeometry>
        </mxCell>
        <mxCell id="X4feA5MgBI4GjkRbaJ-2-195" style="shape=tableRow;horizontal=0;startSize=0;swimlaneHead=0;swimlaneBody=0;fillColor=none;collapsible=0;dropTarget=0;points=[[0,0.5],[1,0.5]];portConstraint=eastwest;top=0;left=0;right=0;bottom=0;" parent="X4feA5MgBI4GjkRbaJ-2-179" vertex="1">
          <mxGeometry y="163" width="378" height="46" as="geometry" />
        </mxCell>
        <mxCell id="X4feA5MgBI4GjkRbaJ-2-196" value="char" style="shape=partialRectangle;connectable=0;fillColor=none;top=0;left=0;bottom=0;right=0;align=left;spacingLeft=2;overflow=hidden;fontSize=11;" parent="X4feA5MgBI4GjkRbaJ-2-195" vertex="1">
          <mxGeometry width="42" height="46" as="geometry">
            <mxRectangle width="42" height="46" as="alternateBounds" />
          </mxGeometry>
        </mxCell>
        <mxCell id="X4feA5MgBI4GjkRbaJ-2-197" value="mcp_item_type" style="shape=partialRectangle;connectable=0;fillColor=none;top=0;left=0;bottom=0;right=0;align=left;spacingLeft=2;overflow=hidden;fontSize=11;" parent="X4feA5MgBI4GjkRbaJ-2-195" vertex="1">
          <mxGeometry x="42" width="272" height="46" as="geometry">
            <mxRectangle width="272" height="46" as="alternateBounds" />
          </mxGeometry>
        </mxCell>
        <mxCell id="X4feA5MgBI4GjkRbaJ-2-198" value="" style="shape=partialRectangle;connectable=0;fillColor=none;top=0;left=0;bottom=0;right=0;align=left;spacingLeft=2;overflow=hidden;fontSize=11;" parent="X4feA5MgBI4GjkRbaJ-2-195" vertex="1">
          <mxGeometry x="314" width="22" height="46" as="geometry">
            <mxRectangle width="22" height="46" as="alternateBounds" />
          </mxGeometry>
        </mxCell>
        <mxCell id="X4feA5MgBI4GjkRbaJ-2-199" value="MCP类型" style="shape=partialRectangle;connectable=0;fillColor=none;top=0;left=0;bottom=0;right=0;align=left;spacingLeft=2;overflow=hidden;fontSize=11;" parent="X4feA5MgBI4GjkRbaJ-2-195" vertex="1">
          <mxGeometry x="336" width="42" height="46" as="geometry">
            <mxRectangle width="42" height="46" as="alternateBounds" />
          </mxGeometry>
        </mxCell>
        <mxCell id="X4feA5MgBI4GjkRbaJ-2-200" style="shape=tableRow;horizontal=0;startSize=0;swimlaneHead=0;swimlaneBody=0;fillColor=none;collapsible=0;dropTarget=0;points=[[0,0.5],[1,0.5]];portConstraint=eastwest;top=0;left=0;right=0;bottom=0;" parent="X4feA5MgBI4GjkRbaJ-2-179" vertex="1">
          <mxGeometry y="209" width="378" height="46" as="geometry" />
        </mxCell>
        <mxCell id="X4feA5MgBI4GjkRbaJ-2-201" value="char" style="shape=partialRectangle;connectable=0;fillColor=none;top=0;left=0;bottom=0;right=0;align=left;spacingLeft=2;overflow=hidden;fontSize=11;" parent="X4feA5MgBI4GjkRbaJ-2-200" vertex="1">
          <mxGeometry width="42" height="46" as="geometry">
            <mxRectangle width="42" height="46" as="alternateBounds" />
          </mxGeometry>
        </mxCell>
        <mxCell id="X4feA5MgBI4GjkRbaJ-2-202" value="status" style="shape=partialRectangle;connectable=0;fillColor=none;top=0;left=0;bottom=0;right=0;align=left;spacingLeft=2;overflow=hidden;fontSize=11;" parent="X4feA5MgBI4GjkRbaJ-2-200" vertex="1">
          <mxGeometry x="42" width="272" height="46" as="geometry">
            <mxRectangle width="272" height="46" as="alternateBounds" />
          </mxGeometry>
        </mxCell>
        <mxCell id="X4feA5MgBI4GjkRbaJ-2-203" value="" style="shape=partialRectangle;connectable=0;fillColor=none;top=0;left=0;bottom=0;right=0;align=left;spacingLeft=2;overflow=hidden;fontSize=11;" parent="X4feA5MgBI4GjkRbaJ-2-200" vertex="1">
          <mxGeometry x="314" width="22" height="46" as="geometry">
            <mxRectangle width="22" height="46" as="alternateBounds" />
          </mxGeometry>
        </mxCell>
        <mxCell id="X4feA5MgBI4GjkRbaJ-2-204" value="状态" style="shape=partialRectangle;connectable=0;fillColor=none;top=0;left=0;bottom=0;right=0;align=left;spacingLeft=2;overflow=hidden;fontSize=11;" parent="X4feA5MgBI4GjkRbaJ-2-200" vertex="1">
          <mxGeometry x="336" width="42" height="46" as="geometry">
            <mxRectangle width="42" height="46" as="alternateBounds" />
          </mxGeometry>
        </mxCell>
        <mxCell id="X4feA5MgBI4GjkRbaJ-2-205" style="shape=tableRow;horizontal=0;startSize=0;swimlaneHead=0;swimlaneBody=0;fillColor=none;collapsible=0;dropTarget=0;points=[[0,0.5],[1,0.5]];portConstraint=eastwest;top=0;left=0;right=0;bottom=0;" parent="X4feA5MgBI4GjkRbaJ-2-179" vertex="1">
          <mxGeometry y="255" width="378" height="46" as="geometry" />
        </mxCell>
        <mxCell id="X4feA5MgBI4GjkRbaJ-2-206" value="int" style="shape=partialRectangle;connectable=0;fillColor=none;top=0;left=0;bottom=0;right=0;align=left;spacingLeft=2;overflow=hidden;fontSize=11;" parent="X4feA5MgBI4GjkRbaJ-2-205" vertex="1">
          <mxGeometry width="42" height="46" as="geometry">
            <mxRectangle width="42" height="46" as="alternateBounds" />
          </mxGeometry>
        </mxCell>
        <mxCell id="X4feA5MgBI4GjkRbaJ-2-207" value="order_num" style="shape=partialRectangle;connectable=0;fillColor=none;top=0;left=0;bottom=0;right=0;align=left;spacingLeft=2;overflow=hidden;fontSize=11;" parent="X4feA5MgBI4GjkRbaJ-2-205" vertex="1">
          <mxGeometry x="42" width="272" height="46" as="geometry">
            <mxRectangle width="272" height="46" as="alternateBounds" />
          </mxGeometry>
        </mxCell>
        <mxCell id="X4feA5MgBI4GjkRbaJ-2-208" value="" style="shape=partialRectangle;connectable=0;fillColor=none;top=0;left=0;bottom=0;right=0;align=left;spacingLeft=2;overflow=hidden;fontSize=11;" parent="X4feA5MgBI4GjkRbaJ-2-205" vertex="1">
          <mxGeometry x="314" width="22" height="46" as="geometry">
            <mxRectangle width="22" height="46" as="alternateBounds" />
          </mxGeometry>
        </mxCell>
        <mxCell id="X4feA5MgBI4GjkRbaJ-2-209" value="排序" style="shape=partialRectangle;connectable=0;fillColor=none;top=0;left=0;bottom=0;right=0;align=left;spacingLeft=2;overflow=hidden;fontSize=11;" parent="X4feA5MgBI4GjkRbaJ-2-205" vertex="1">
          <mxGeometry x="336" width="42" height="46" as="geometry">
            <mxRectangle width="42" height="46" as="alternateBounds" />
          </mxGeometry>
        </mxCell>
        <mxCell id="X4feA5MgBI4GjkRbaJ-2-210" value="origin_tool_expo" style="shape=table;startSize=25;container=1;collapsible=0;childLayout=tableLayout;fixedRows=1;rowLines=1;fontStyle=1;align=center;resizeLast=1;" parent="1" vertex="1">
          <mxGeometry x="28" y="1400" width="429" height="475" as="geometry" />
        </mxCell>
        <mxCell id="X4feA5MgBI4GjkRbaJ-2-211" style="shape=tableRow;horizontal=0;startSize=0;swimlaneHead=0;swimlaneBody=0;fillColor=none;collapsible=0;dropTarget=0;points=[[0,0.5],[1,0.5]];portConstraint=eastwest;top=0;left=0;right=0;bottom=0;" parent="X4feA5MgBI4GjkRbaJ-2-210" vertex="1">
          <mxGeometry y="25" width="429" height="45" as="geometry" />
        </mxCell>
        <mxCell id="X4feA5MgBI4GjkRbaJ-2-212" value="bigint" style="shape=partialRectangle;connectable=0;fillColor=none;top=0;left=0;bottom=0;right=0;align=left;spacingLeft=2;overflow=hidden;fontSize=11;" parent="X4feA5MgBI4GjkRbaJ-2-211" vertex="1">
          <mxGeometry width="42" height="45" as="geometry">
            <mxRectangle width="42" height="45" as="alternateBounds" />
          </mxGeometry>
        </mxCell>
        <mxCell id="X4feA5MgBI4GjkRbaJ-2-213" value="id" style="shape=partialRectangle;connectable=0;fillColor=none;top=0;left=0;bottom=0;right=0;align=left;spacingLeft=2;overflow=hidden;fontSize=11;" parent="X4feA5MgBI4GjkRbaJ-2-211" vertex="1">
          <mxGeometry x="42" width="317" height="45" as="geometry">
            <mxRectangle width="317" height="45" as="alternateBounds" />
          </mxGeometry>
        </mxCell>
        <mxCell id="X4feA5MgBI4GjkRbaJ-2-214" value="PK" style="shape=partialRectangle;connectable=0;fillColor=none;top=0;left=0;bottom=0;right=0;align=left;spacingLeft=2;overflow=hidden;fontSize=11;" parent="X4feA5MgBI4GjkRbaJ-2-211" vertex="1">
          <mxGeometry x="359" width="22" height="45" as="geometry">
            <mxRectangle width="22" height="45" as="alternateBounds" />
          </mxGeometry>
        </mxCell>
        <mxCell id="X4feA5MgBI4GjkRbaJ-2-215" value="主键" style="shape=partialRectangle;connectable=0;fillColor=none;top=0;left=0;bottom=0;right=0;align=left;spacingLeft=2;overflow=hidden;fontSize=11;" parent="X4feA5MgBI4GjkRbaJ-2-211" vertex="1">
          <mxGeometry x="381" width="48" height="45" as="geometry">
            <mxRectangle width="48" height="45" as="alternateBounds" />
          </mxGeometry>
        </mxCell>
        <mxCell id="X4feA5MgBI4GjkRbaJ-2-216" style="shape=tableRow;horizontal=0;startSize=0;swimlaneHead=0;swimlaneBody=0;fillColor=none;collapsible=0;dropTarget=0;points=[[0,0.5],[1,0.5]];portConstraint=eastwest;top=0;left=0;right=0;bottom=0;" parent="X4feA5MgBI4GjkRbaJ-2-210" vertex="1">
          <mxGeometry y="70" width="429" height="45" as="geometry" />
        </mxCell>
        <mxCell id="X4feA5MgBI4GjkRbaJ-2-217" value="bigint" style="shape=partialRectangle;connectable=0;fillColor=none;top=0;left=0;bottom=0;right=0;align=left;spacingLeft=2;overflow=hidden;fontSize=11;" parent="X4feA5MgBI4GjkRbaJ-2-216" vertex="1">
          <mxGeometry width="42" height="45" as="geometry">
            <mxRectangle width="42" height="45" as="alternateBounds" />
          </mxGeometry>
        </mxCell>
        <mxCell id="X4feA5MgBI4GjkRbaJ-2-218" value="provider_tool_num" style="shape=partialRectangle;connectable=0;fillColor=none;top=0;left=0;bottom=0;right=0;align=left;spacingLeft=2;overflow=hidden;fontSize=11;" parent="X4feA5MgBI4GjkRbaJ-2-216" vertex="1">
          <mxGeometry x="42" width="317" height="45" as="geometry">
            <mxRectangle width="317" height="45" as="alternateBounds" />
          </mxGeometry>
        </mxCell>
        <mxCell id="X4feA5MgBI4GjkRbaJ-2-219" value="UK" style="shape=partialRectangle;connectable=0;fillColor=none;top=0;left=0;bottom=0;right=0;align=left;spacingLeft=2;overflow=hidden;fontSize=11;" parent="X4feA5MgBI4GjkRbaJ-2-216" vertex="1">
          <mxGeometry x="359" width="22" height="45" as="geometry">
            <mxRectangle width="22" height="45" as="alternateBounds" />
          </mxGeometry>
        </mxCell>
        <mxCell id="X4feA5MgBI4GjkRbaJ-2-220" value="提供者工具编号" style="shape=partialRectangle;connectable=0;fillColor=none;top=0;left=0;bottom=0;right=0;align=left;spacingLeft=2;overflow=hidden;fontSize=11;" parent="X4feA5MgBI4GjkRbaJ-2-216" vertex="1">
          <mxGeometry x="381" width="48" height="45" as="geometry">
            <mxRectangle width="48" height="45" as="alternateBounds" />
          </mxGeometry>
        </mxCell>
        <mxCell id="X4feA5MgBI4GjkRbaJ-2-221" style="shape=tableRow;horizontal=0;startSize=0;swimlaneHead=0;swimlaneBody=0;fillColor=none;collapsible=0;dropTarget=0;points=[[0,0.5],[1,0.5]];portConstraint=eastwest;top=0;left=0;right=0;bottom=0;" parent="X4feA5MgBI4GjkRbaJ-2-210" vertex="1">
          <mxGeometry y="115" width="429" height="45" as="geometry" />
        </mxCell>
        <mxCell id="X4feA5MgBI4GjkRbaJ-2-222" value="varchar" style="shape=partialRectangle;connectable=0;fillColor=none;top=0;left=0;bottom=0;right=0;align=left;spacingLeft=2;overflow=hidden;fontSize=11;" parent="X4feA5MgBI4GjkRbaJ-2-221" vertex="1">
          <mxGeometry width="42" height="45" as="geometry">
            <mxRectangle width="42" height="45" as="alternateBounds" />
          </mxGeometry>
        </mxCell>
        <mxCell id="X4feA5MgBI4GjkRbaJ-2-223" value="provider_tool_name" style="shape=partialRectangle;connectable=0;fillColor=none;top=0;left=0;bottom=0;right=0;align=left;spacingLeft=2;overflow=hidden;fontSize=11;" parent="X4feA5MgBI4GjkRbaJ-2-221" vertex="1">
          <mxGeometry x="42" width="317" height="45" as="geometry">
            <mxRectangle width="317" height="45" as="alternateBounds" />
          </mxGeometry>
        </mxCell>
        <mxCell id="X4feA5MgBI4GjkRbaJ-2-224" value="" style="shape=partialRectangle;connectable=0;fillColor=none;top=0;left=0;bottom=0;right=0;align=left;spacingLeft=2;overflow=hidden;fontSize=11;" parent="X4feA5MgBI4GjkRbaJ-2-221" vertex="1">
          <mxGeometry x="359" width="22" height="45" as="geometry">
            <mxRectangle width="22" height="45" as="alternateBounds" />
          </mxGeometry>
        </mxCell>
        <mxCell id="X4feA5MgBI4GjkRbaJ-2-225" value="提供者工具名称" style="shape=partialRectangle;connectable=0;fillColor=none;top=0;left=0;bottom=0;right=0;align=left;spacingLeft=2;overflow=hidden;fontSize=11;" parent="X4feA5MgBI4GjkRbaJ-2-221" vertex="1">
          <mxGeometry x="381" width="48" height="45" as="geometry">
            <mxRectangle width="48" height="45" as="alternateBounds" />
          </mxGeometry>
        </mxCell>
        <mxCell id="X4feA5MgBI4GjkRbaJ-2-226" style="shape=tableRow;horizontal=0;startSize=0;swimlaneHead=0;swimlaneBody=0;fillColor=none;collapsible=0;dropTarget=0;points=[[0,0.5],[1,0.5]];portConstraint=eastwest;top=0;left=0;right=0;bottom=0;" parent="X4feA5MgBI4GjkRbaJ-2-210" vertex="1">
          <mxGeometry y="160" width="429" height="45" as="geometry" />
        </mxCell>
        <mxCell id="X4feA5MgBI4GjkRbaJ-2-227" value="varchar" style="shape=partialRectangle;connectable=0;fillColor=none;top=0;left=0;bottom=0;right=0;align=left;spacingLeft=2;overflow=hidden;fontSize=11;" parent="X4feA5MgBI4GjkRbaJ-2-226" vertex="1">
          <mxGeometry width="42" height="45" as="geometry">
            <mxRectangle width="42" height="45" as="alternateBounds" />
          </mxGeometry>
        </mxCell>
        <mxCell id="X4feA5MgBI4GjkRbaJ-2-228" value="name_display" style="shape=partialRectangle;connectable=0;fillColor=none;top=0;left=0;bottom=0;right=0;align=left;spacingLeft=2;overflow=hidden;fontSize=11;" parent="X4feA5MgBI4GjkRbaJ-2-226" vertex="1">
          <mxGeometry x="42" width="317" height="45" as="geometry">
            <mxRectangle width="317" height="45" as="alternateBounds" />
          </mxGeometry>
        </mxCell>
        <mxCell id="X4feA5MgBI4GjkRbaJ-2-229" value="" style="shape=partialRectangle;connectable=0;fillColor=none;top=0;left=0;bottom=0;right=0;align=left;spacingLeft=2;overflow=hidden;fontSize=11;" parent="X4feA5MgBI4GjkRbaJ-2-226" vertex="1">
          <mxGeometry x="359" width="22" height="45" as="geometry">
            <mxRectangle width="22" height="45" as="alternateBounds" />
          </mxGeometry>
        </mxCell>
        <mxCell id="X4feA5MgBI4GjkRbaJ-2-230" value="名称" style="shape=partialRectangle;connectable=0;fillColor=none;top=0;left=0;bottom=0;right=0;align=left;spacingLeft=2;overflow=hidden;fontSize=11;" parent="X4feA5MgBI4GjkRbaJ-2-226" vertex="1">
          <mxGeometry x="381" width="48" height="45" as="geometry">
            <mxRectangle width="48" height="45" as="alternateBounds" />
          </mxGeometry>
        </mxCell>
        <mxCell id="X4feA5MgBI4GjkRbaJ-2-231" style="shape=tableRow;horizontal=0;startSize=0;swimlaneHead=0;swimlaneBody=0;fillColor=none;collapsible=0;dropTarget=0;points=[[0,0.5],[1,0.5]];portConstraint=eastwest;top=0;left=0;right=0;bottom=0;" parent="X4feA5MgBI4GjkRbaJ-2-210" vertex="1">
          <mxGeometry y="205" width="429" height="45" as="geometry" />
        </mxCell>
        <mxCell id="X4feA5MgBI4GjkRbaJ-2-232" value="varchar" style="shape=partialRectangle;connectable=0;fillColor=none;top=0;left=0;bottom=0;right=0;align=left;spacingLeft=2;overflow=hidden;fontSize=11;" parent="X4feA5MgBI4GjkRbaJ-2-231" vertex="1">
          <mxGeometry width="42" height="45" as="geometry">
            <mxRectangle width="42" height="45" as="alternateBounds" />
          </mxGeometry>
        </mxCell>
        <mxCell id="X4feA5MgBI4GjkRbaJ-2-233" value="desc_display" style="shape=partialRectangle;connectable=0;fillColor=none;top=0;left=0;bottom=0;right=0;align=left;spacingLeft=2;overflow=hidden;fontSize=11;" parent="X4feA5MgBI4GjkRbaJ-2-231" vertex="1">
          <mxGeometry x="42" width="317" height="45" as="geometry">
            <mxRectangle width="317" height="45" as="alternateBounds" />
          </mxGeometry>
        </mxCell>
        <mxCell id="X4feA5MgBI4GjkRbaJ-2-234" value="" style="shape=partialRectangle;connectable=0;fillColor=none;top=0;left=0;bottom=0;right=0;align=left;spacingLeft=2;overflow=hidden;fontSize=11;" parent="X4feA5MgBI4GjkRbaJ-2-231" vertex="1">
          <mxGeometry x="359" width="22" height="45" as="geometry">
            <mxRectangle width="22" height="45" as="alternateBounds" />
          </mxGeometry>
        </mxCell>
        <mxCell id="X4feA5MgBI4GjkRbaJ-2-235" value="功能描述" style="shape=partialRectangle;connectable=0;fillColor=none;top=0;left=0;bottom=0;right=0;align=left;spacingLeft=2;overflow=hidden;fontSize=11;" parent="X4feA5MgBI4GjkRbaJ-2-231" vertex="1">
          <mxGeometry x="381" width="48" height="45" as="geometry">
            <mxRectangle width="48" height="45" as="alternateBounds" />
          </mxGeometry>
        </mxCell>
        <mxCell id="X4feA5MgBI4GjkRbaJ-2-236" style="shape=tableRow;horizontal=0;startSize=0;swimlaneHead=0;swimlaneBody=0;fillColor=none;collapsible=0;dropTarget=0;points=[[0,0.5],[1,0.5]];portConstraint=eastwest;top=0;left=0;right=0;bottom=0;" parent="X4feA5MgBI4GjkRbaJ-2-210" vertex="1">
          <mxGeometry y="250" width="429" height="45" as="geometry" />
        </mxCell>
        <mxCell id="X4feA5MgBI4GjkRbaJ-2-237" value="int" style="shape=partialRectangle;connectable=0;fillColor=none;top=0;left=0;bottom=0;right=0;align=left;spacingLeft=2;overflow=hidden;fontSize=11;" parent="X4feA5MgBI4GjkRbaJ-2-236" vertex="1">
          <mxGeometry width="42" height="45" as="geometry">
            <mxRectangle width="42" height="45" as="alternateBounds" />
          </mxGeometry>
        </mxCell>
        <mxCell id="X4feA5MgBI4GjkRbaJ-2-238" value="app_class" style="shape=partialRectangle;connectable=0;fillColor=none;top=0;left=0;bottom=0;right=0;align=left;spacingLeft=2;overflow=hidden;fontSize=11;" parent="X4feA5MgBI4GjkRbaJ-2-236" vertex="1">
          <mxGeometry x="42" width="317" height="45" as="geometry">
            <mxRectangle width="317" height="45" as="alternateBounds" />
          </mxGeometry>
        </mxCell>
        <mxCell id="X4feA5MgBI4GjkRbaJ-2-239" value="" style="shape=partialRectangle;connectable=0;fillColor=none;top=0;left=0;bottom=0;right=0;align=left;spacingLeft=2;overflow=hidden;fontSize=11;" parent="X4feA5MgBI4GjkRbaJ-2-236" vertex="1">
          <mxGeometry x="359" width="22" height="45" as="geometry">
            <mxRectangle width="22" height="45" as="alternateBounds" />
          </mxGeometry>
        </mxCell>
        <mxCell id="X4feA5MgBI4GjkRbaJ-2-240" value="" style="shape=partialRectangle;connectable=0;fillColor=none;top=0;left=0;bottom=0;right=0;align=left;spacingLeft=2;overflow=hidden;fontSize=11;" parent="X4feA5MgBI4GjkRbaJ-2-236" vertex="1">
          <mxGeometry x="381" width="48" height="45" as="geometry">
            <mxRectangle width="48" height="45" as="alternateBounds" />
          </mxGeometry>
        </mxCell>
        <mxCell id="X4feA5MgBI4GjkRbaJ-2-241" style="shape=tableRow;horizontal=0;startSize=0;swimlaneHead=0;swimlaneBody=0;fillColor=none;collapsible=0;dropTarget=0;points=[[0,0.5],[1,0.5]];portConstraint=eastwest;top=0;left=0;right=0;bottom=0;" parent="X4feA5MgBI4GjkRbaJ-2-210" vertex="1">
          <mxGeometry y="295" width="429" height="45" as="geometry" />
        </mxCell>
        <mxCell id="X4feA5MgBI4GjkRbaJ-2-242" value="int" style="shape=partialRectangle;connectable=0;fillColor=none;top=0;left=0;bottom=0;right=0;align=left;spacingLeft=2;overflow=hidden;fontSize=11;" parent="X4feA5MgBI4GjkRbaJ-2-241" vertex="1">
          <mxGeometry width="42" height="45" as="geometry">
            <mxRectangle width="42" height="45" as="alternateBounds" />
          </mxGeometry>
        </mxCell>
        <mxCell id="X4feA5MgBI4GjkRbaJ-2-243" value="command_id" style="shape=partialRectangle;connectable=0;fillColor=none;top=0;left=0;bottom=0;right=0;align=left;spacingLeft=2;overflow=hidden;fontSize=11;" parent="X4feA5MgBI4GjkRbaJ-2-241" vertex="1">
          <mxGeometry x="42" width="317" height="45" as="geometry">
            <mxRectangle width="317" height="45" as="alternateBounds" />
          </mxGeometry>
        </mxCell>
        <mxCell id="X4feA5MgBI4GjkRbaJ-2-244" value="" style="shape=partialRectangle;connectable=0;fillColor=none;top=0;left=0;bottom=0;right=0;align=left;spacingLeft=2;overflow=hidden;fontSize=11;" parent="X4feA5MgBI4GjkRbaJ-2-241" vertex="1">
          <mxGeometry x="359" width="22" height="45" as="geometry">
            <mxRectangle width="22" height="45" as="alternateBounds" />
          </mxGeometry>
        </mxCell>
        <mxCell id="X4feA5MgBI4GjkRbaJ-2-245" value="" style="shape=partialRectangle;connectable=0;fillColor=none;top=0;left=0;bottom=0;right=0;align=left;spacingLeft=2;overflow=hidden;fontSize=11;" parent="X4feA5MgBI4GjkRbaJ-2-241" vertex="1">
          <mxGeometry x="381" width="48" height="45" as="geometry">
            <mxRectangle width="48" height="45" as="alternateBounds" />
          </mxGeometry>
        </mxCell>
        <mxCell id="X4feA5MgBI4GjkRbaJ-2-246" style="shape=tableRow;horizontal=0;startSize=0;swimlaneHead=0;swimlaneBody=0;fillColor=none;collapsible=0;dropTarget=0;points=[[0,0.5],[1,0.5]];portConstraint=eastwest;top=0;left=0;right=0;bottom=0;" parent="X4feA5MgBI4GjkRbaJ-2-210" vertex="1">
          <mxGeometry y="340" width="429" height="45" as="geometry" />
        </mxCell>
        <mxCell id="X4feA5MgBI4GjkRbaJ-2-247" value="varchar" style="shape=partialRectangle;connectable=0;fillColor=none;top=0;left=0;bottom=0;right=0;align=left;spacingLeft=2;overflow=hidden;fontSize=11;" parent="X4feA5MgBI4GjkRbaJ-2-246" vertex="1">
          <mxGeometry width="42" height="45" as="geometry">
            <mxRectangle width="42" height="45" as="alternateBounds" />
          </mxGeometry>
        </mxCell>
        <mxCell id="X4feA5MgBI4GjkRbaJ-2-248" value="function_name" style="shape=partialRectangle;connectable=0;fillColor=none;top=0;left=0;bottom=0;right=0;align=left;spacingLeft=2;overflow=hidden;fontSize=11;" parent="X4feA5MgBI4GjkRbaJ-2-246" vertex="1">
          <mxGeometry x="42" width="317" height="45" as="geometry">
            <mxRectangle width="317" height="45" as="alternateBounds" />
          </mxGeometry>
        </mxCell>
        <mxCell id="X4feA5MgBI4GjkRbaJ-2-249" value="" style="shape=partialRectangle;connectable=0;fillColor=none;top=0;left=0;bottom=0;right=0;align=left;spacingLeft=2;overflow=hidden;fontSize=11;" parent="X4feA5MgBI4GjkRbaJ-2-246" vertex="1">
          <mxGeometry x="359" width="22" height="45" as="geometry">
            <mxRectangle width="22" height="45" as="alternateBounds" />
          </mxGeometry>
        </mxCell>
        <mxCell id="X4feA5MgBI4GjkRbaJ-2-250" value="" style="shape=partialRectangle;connectable=0;fillColor=none;top=0;left=0;bottom=0;right=0;align=left;spacingLeft=2;overflow=hidden;fontSize=11;" parent="X4feA5MgBI4GjkRbaJ-2-246" vertex="1">
          <mxGeometry x="381" width="48" height="45" as="geometry">
            <mxRectangle width="48" height="45" as="alternateBounds" />
          </mxGeometry>
        </mxCell>
        <mxCell id="X4feA5MgBI4GjkRbaJ-2-251" style="shape=tableRow;horizontal=0;startSize=0;swimlaneHead=0;swimlaneBody=0;fillColor=none;collapsible=0;dropTarget=0;points=[[0,0.5],[1,0.5]];portConstraint=eastwest;top=0;left=0;right=0;bottom=0;" parent="X4feA5MgBI4GjkRbaJ-2-210" vertex="1">
          <mxGeometry y="385" width="429" height="45" as="geometry" />
        </mxCell>
        <mxCell id="X4feA5MgBI4GjkRbaJ-2-252" value="varchar" style="shape=partialRectangle;connectable=0;fillColor=none;top=0;left=0;bottom=0;right=0;align=left;spacingLeft=2;overflow=hidden;fontSize=11;" parent="X4feA5MgBI4GjkRbaJ-2-251" vertex="1">
          <mxGeometry width="42" height="45" as="geometry">
            <mxRectangle width="42" height="45" as="alternateBounds" />
          </mxGeometry>
        </mxCell>
        <mxCell id="X4feA5MgBI4GjkRbaJ-2-253" value="expo_api_define" style="shape=partialRectangle;connectable=0;fillColor=none;top=0;left=0;bottom=0;right=0;align=left;spacingLeft=2;overflow=hidden;fontSize=11;" parent="X4feA5MgBI4GjkRbaJ-2-251" vertex="1">
          <mxGeometry x="42" width="317" height="45" as="geometry">
            <mxRectangle width="317" height="45" as="alternateBounds" />
          </mxGeometry>
        </mxCell>
        <mxCell id="X4feA5MgBI4GjkRbaJ-2-254" value="" style="shape=partialRectangle;connectable=0;fillColor=none;top=0;left=0;bottom=0;right=0;align=left;spacingLeft=2;overflow=hidden;fontSize=11;" parent="X4feA5MgBI4GjkRbaJ-2-251" vertex="1">
          <mxGeometry x="359" width="22" height="45" as="geometry">
            <mxRectangle width="22" height="45" as="alternateBounds" />
          </mxGeometry>
        </mxCell>
        <mxCell id="X4feA5MgBI4GjkRbaJ-2-255" value="api描述" style="shape=partialRectangle;connectable=0;fillColor=none;top=0;left=0;bottom=0;right=0;align=left;spacingLeft=2;overflow=hidden;fontSize=11;" parent="X4feA5MgBI4GjkRbaJ-2-251" vertex="1">
          <mxGeometry x="381" width="48" height="45" as="geometry">
            <mxRectangle width="48" height="45" as="alternateBounds" />
          </mxGeometry>
        </mxCell>
        <mxCell id="X4feA5MgBI4GjkRbaJ-2-256" style="shape=tableRow;horizontal=0;startSize=0;swimlaneHead=0;swimlaneBody=0;fillColor=none;collapsible=0;dropTarget=0;points=[[0,0.5],[1,0.5]];portConstraint=eastwest;top=0;left=0;right=0;bottom=0;" parent="X4feA5MgBI4GjkRbaJ-2-210" vertex="1">
          <mxGeometry y="430" width="429" height="45" as="geometry" />
        </mxCell>
        <mxCell id="X4feA5MgBI4GjkRbaJ-2-257" value="bigint" style="shape=partialRectangle;connectable=0;fillColor=none;top=0;left=0;bottom=0;right=0;align=left;spacingLeft=2;overflow=hidden;fontSize=11;" parent="X4feA5MgBI4GjkRbaJ-2-256" vertex="1">
          <mxGeometry width="42" height="45" as="geometry">
            <mxRectangle width="42" height="45" as="alternateBounds" />
          </mxGeometry>
        </mxCell>
        <mxCell id="X4feA5MgBI4GjkRbaJ-2-258" value="provider_app_num" style="shape=partialRectangle;connectable=0;fillColor=none;top=0;left=0;bottom=0;right=0;align=left;spacingLeft=2;overflow=hidden;fontSize=11;" parent="X4feA5MgBI4GjkRbaJ-2-256" vertex="1">
          <mxGeometry x="42" width="317" height="45" as="geometry">
            <mxRectangle width="317" height="45" as="alternateBounds" />
          </mxGeometry>
        </mxCell>
        <mxCell id="X4feA5MgBI4GjkRbaJ-2-259" value="FK" style="shape=partialRectangle;connectable=0;fillColor=none;top=0;left=0;bottom=0;right=0;align=left;spacingLeft=2;overflow=hidden;fontSize=11;" parent="X4feA5MgBI4GjkRbaJ-2-256" vertex="1">
          <mxGeometry x="359" width="22" height="45" as="geometry">
            <mxRectangle width="22" height="45" as="alternateBounds" />
          </mxGeometry>
        </mxCell>
        <mxCell id="X4feA5MgBI4GjkRbaJ-2-260" value="提供者app编号" style="shape=partialRectangle;connectable=0;fillColor=none;top=0;left=0;bottom=0;right=0;align=left;spacingLeft=2;overflow=hidden;fontSize=11;" parent="X4feA5MgBI4GjkRbaJ-2-256" vertex="1">
          <mxGeometry x="381" width="48" height="45" as="geometry">
            <mxRectangle width="48" height="45" as="alternateBounds" />
          </mxGeometry>
        </mxCell>
        <mxCell id="X4feA5MgBI4GjkRbaJ-2-261" value="origin_tool_http" style="shape=table;startSize=25;container=1;collapsible=0;childLayout=tableLayout;fixedRows=1;rowLines=1;fontStyle=1;align=center;resizeLast=1;" parent="1" vertex="1">
          <mxGeometry x="607" y="1379" width="429" height="513" as="geometry" />
        </mxCell>
        <mxCell id="X4feA5MgBI4GjkRbaJ-2-262" style="shape=tableRow;horizontal=0;startSize=0;swimlaneHead=0;swimlaneBody=0;fillColor=none;collapsible=0;dropTarget=0;points=[[0,0.5],[1,0.5]];portConstraint=eastwest;top=0;left=0;right=0;bottom=0;" parent="X4feA5MgBI4GjkRbaJ-2-261" vertex="1">
          <mxGeometry y="25" width="429" height="44" as="geometry" />
        </mxCell>
        <mxCell id="X4feA5MgBI4GjkRbaJ-2-263" value="bigint" style="shape=partialRectangle;connectable=0;fillColor=none;top=0;left=0;bottom=0;right=0;align=left;spacingLeft=2;overflow=hidden;fontSize=11;" parent="X4feA5MgBI4GjkRbaJ-2-262" vertex="1">
          <mxGeometry width="42" height="44" as="geometry">
            <mxRectangle width="42" height="44" as="alternateBounds" />
          </mxGeometry>
        </mxCell>
        <mxCell id="X4feA5MgBI4GjkRbaJ-2-264" value="id" style="shape=partialRectangle;connectable=0;fillColor=none;top=0;left=0;bottom=0;right=0;align=left;spacingLeft=2;overflow=hidden;fontSize=11;" parent="X4feA5MgBI4GjkRbaJ-2-262" vertex="1">
          <mxGeometry x="42" width="317" height="44" as="geometry">
            <mxRectangle width="317" height="44" as="alternateBounds" />
          </mxGeometry>
        </mxCell>
        <mxCell id="X4feA5MgBI4GjkRbaJ-2-265" value="PK" style="shape=partialRectangle;connectable=0;fillColor=none;top=0;left=0;bottom=0;right=0;align=left;spacingLeft=2;overflow=hidden;fontSize=11;" parent="X4feA5MgBI4GjkRbaJ-2-262" vertex="1">
          <mxGeometry x="359" width="22" height="44" as="geometry">
            <mxRectangle width="22" height="44" as="alternateBounds" />
          </mxGeometry>
        </mxCell>
        <mxCell id="X4feA5MgBI4GjkRbaJ-2-266" value="主键" style="shape=partialRectangle;connectable=0;fillColor=none;top=0;left=0;bottom=0;right=0;align=left;spacingLeft=2;overflow=hidden;fontSize=11;" parent="X4feA5MgBI4GjkRbaJ-2-262" vertex="1">
          <mxGeometry x="381" width="48" height="44" as="geometry">
            <mxRectangle width="48" height="44" as="alternateBounds" />
          </mxGeometry>
        </mxCell>
        <mxCell id="X4feA5MgBI4GjkRbaJ-2-267" style="shape=tableRow;horizontal=0;startSize=0;swimlaneHead=0;swimlaneBody=0;fillColor=none;collapsible=0;dropTarget=0;points=[[0,0.5],[1,0.5]];portConstraint=eastwest;top=0;left=0;right=0;bottom=0;" parent="X4feA5MgBI4GjkRbaJ-2-261" vertex="1">
          <mxGeometry y="69" width="429" height="44" as="geometry" />
        </mxCell>
        <mxCell id="X4feA5MgBI4GjkRbaJ-2-268" value="bigint" style="shape=partialRectangle;connectable=0;fillColor=none;top=0;left=0;bottom=0;right=0;align=left;spacingLeft=2;overflow=hidden;fontSize=11;" parent="X4feA5MgBI4GjkRbaJ-2-267" vertex="1">
          <mxGeometry width="42" height="44" as="geometry">
            <mxRectangle width="42" height="44" as="alternateBounds" />
          </mxGeometry>
        </mxCell>
        <mxCell id="X4feA5MgBI4GjkRbaJ-2-269" value="provider_tool_num" style="shape=partialRectangle;connectable=0;fillColor=none;top=0;left=0;bottom=0;right=0;align=left;spacingLeft=2;overflow=hidden;fontSize=11;" parent="X4feA5MgBI4GjkRbaJ-2-267" vertex="1">
          <mxGeometry x="42" width="317" height="44" as="geometry">
            <mxRectangle width="317" height="44" as="alternateBounds" />
          </mxGeometry>
        </mxCell>
        <mxCell id="X4feA5MgBI4GjkRbaJ-2-270" value="UK" style="shape=partialRectangle;connectable=0;fillColor=none;top=0;left=0;bottom=0;right=0;align=left;spacingLeft=2;overflow=hidden;fontSize=11;" parent="X4feA5MgBI4GjkRbaJ-2-267" vertex="1">
          <mxGeometry x="359" width="22" height="44" as="geometry">
            <mxRectangle width="22" height="44" as="alternateBounds" />
          </mxGeometry>
        </mxCell>
        <mxCell id="X4feA5MgBI4GjkRbaJ-2-271" value="提供者工具编号" style="shape=partialRectangle;connectable=0;fillColor=none;top=0;left=0;bottom=0;right=0;align=left;spacingLeft=2;overflow=hidden;fontSize=11;" parent="X4feA5MgBI4GjkRbaJ-2-267" vertex="1">
          <mxGeometry x="381" width="48" height="44" as="geometry">
            <mxRectangle width="48" height="44" as="alternateBounds" />
          </mxGeometry>
        </mxCell>
        <mxCell id="X4feA5MgBI4GjkRbaJ-2-272" style="shape=tableRow;horizontal=0;startSize=0;swimlaneHead=0;swimlaneBody=0;fillColor=none;collapsible=0;dropTarget=0;points=[[0,0.5],[1,0.5]];portConstraint=eastwest;top=0;left=0;right=0;bottom=0;" parent="X4feA5MgBI4GjkRbaJ-2-261" vertex="1">
          <mxGeometry y="113" width="429" height="44" as="geometry" />
        </mxCell>
        <mxCell id="X4feA5MgBI4GjkRbaJ-2-273" value="varchar" style="shape=partialRectangle;connectable=0;fillColor=none;top=0;left=0;bottom=0;right=0;align=left;spacingLeft=2;overflow=hidden;fontSize=11;" parent="X4feA5MgBI4GjkRbaJ-2-272" vertex="1">
          <mxGeometry width="42" height="44" as="geometry">
            <mxRectangle width="42" height="44" as="alternateBounds" />
          </mxGeometry>
        </mxCell>
        <mxCell id="X4feA5MgBI4GjkRbaJ-2-274" value="provider_tool_name" style="shape=partialRectangle;connectable=0;fillColor=none;top=0;left=0;bottom=0;right=0;align=left;spacingLeft=2;overflow=hidden;fontSize=11;" parent="X4feA5MgBI4GjkRbaJ-2-272" vertex="1">
          <mxGeometry x="42" width="317" height="44" as="geometry">
            <mxRectangle width="317" height="44" as="alternateBounds" />
          </mxGeometry>
        </mxCell>
        <mxCell id="X4feA5MgBI4GjkRbaJ-2-275" value="" style="shape=partialRectangle;connectable=0;fillColor=none;top=0;left=0;bottom=0;right=0;align=left;spacingLeft=2;overflow=hidden;fontSize=11;" parent="X4feA5MgBI4GjkRbaJ-2-272" vertex="1">
          <mxGeometry x="359" width="22" height="44" as="geometry">
            <mxRectangle width="22" height="44" as="alternateBounds" />
          </mxGeometry>
        </mxCell>
        <mxCell id="X4feA5MgBI4GjkRbaJ-2-276" value="提供者工具名称" style="shape=partialRectangle;connectable=0;fillColor=none;top=0;left=0;bottom=0;right=0;align=left;spacingLeft=2;overflow=hidden;fontSize=11;" parent="X4feA5MgBI4GjkRbaJ-2-272" vertex="1">
          <mxGeometry x="381" width="48" height="44" as="geometry">
            <mxRectangle width="48" height="44" as="alternateBounds" />
          </mxGeometry>
        </mxCell>
        <mxCell id="X4feA5MgBI4GjkRbaJ-2-277" style="shape=tableRow;horizontal=0;startSize=0;swimlaneHead=0;swimlaneBody=0;fillColor=none;collapsible=0;dropTarget=0;points=[[0,0.5],[1,0.5]];portConstraint=eastwest;top=0;left=0;right=0;bottom=0;" parent="X4feA5MgBI4GjkRbaJ-2-261" vertex="1">
          <mxGeometry y="157" width="429" height="44" as="geometry" />
        </mxCell>
        <mxCell id="X4feA5MgBI4GjkRbaJ-2-278" value="varchar" style="shape=partialRectangle;connectable=0;fillColor=none;top=0;left=0;bottom=0;right=0;align=left;spacingLeft=2;overflow=hidden;fontSize=11;" parent="X4feA5MgBI4GjkRbaJ-2-277" vertex="1">
          <mxGeometry width="42" height="44" as="geometry">
            <mxRectangle width="42" height="44" as="alternateBounds" />
          </mxGeometry>
        </mxCell>
        <mxCell id="X4feA5MgBI4GjkRbaJ-2-279" value="name_display" style="shape=partialRectangle;connectable=0;fillColor=none;top=0;left=0;bottom=0;right=0;align=left;spacingLeft=2;overflow=hidden;fontSize=11;" parent="X4feA5MgBI4GjkRbaJ-2-277" vertex="1">
          <mxGeometry x="42" width="317" height="44" as="geometry">
            <mxRectangle width="317" height="44" as="alternateBounds" />
          </mxGeometry>
        </mxCell>
        <mxCell id="X4feA5MgBI4GjkRbaJ-2-280" value="" style="shape=partialRectangle;connectable=0;fillColor=none;top=0;left=0;bottom=0;right=0;align=left;spacingLeft=2;overflow=hidden;fontSize=11;" parent="X4feA5MgBI4GjkRbaJ-2-277" vertex="1">
          <mxGeometry x="359" width="22" height="44" as="geometry">
            <mxRectangle width="22" height="44" as="alternateBounds" />
          </mxGeometry>
        </mxCell>
        <mxCell id="X4feA5MgBI4GjkRbaJ-2-281" value="名称" style="shape=partialRectangle;connectable=0;fillColor=none;top=0;left=0;bottom=0;right=0;align=left;spacingLeft=2;overflow=hidden;fontSize=11;" parent="X4feA5MgBI4GjkRbaJ-2-277" vertex="1">
          <mxGeometry x="381" width="48" height="44" as="geometry">
            <mxRectangle width="48" height="44" as="alternateBounds" />
          </mxGeometry>
        </mxCell>
        <mxCell id="X4feA5MgBI4GjkRbaJ-2-282" style="shape=tableRow;horizontal=0;startSize=0;swimlaneHead=0;swimlaneBody=0;fillColor=none;collapsible=0;dropTarget=0;points=[[0,0.5],[1,0.5]];portConstraint=eastwest;top=0;left=0;right=0;bottom=0;" parent="X4feA5MgBI4GjkRbaJ-2-261" vertex="1">
          <mxGeometry y="201" width="429" height="44" as="geometry" />
        </mxCell>
        <mxCell id="X4feA5MgBI4GjkRbaJ-2-283" value="varchar" style="shape=partialRectangle;connectable=0;fillColor=none;top=0;left=0;bottom=0;right=0;align=left;spacingLeft=2;overflow=hidden;fontSize=11;" parent="X4feA5MgBI4GjkRbaJ-2-282" vertex="1">
          <mxGeometry width="42" height="44" as="geometry">
            <mxRectangle width="42" height="44" as="alternateBounds" />
          </mxGeometry>
        </mxCell>
        <mxCell id="X4feA5MgBI4GjkRbaJ-2-284" value="desc_display" style="shape=partialRectangle;connectable=0;fillColor=none;top=0;left=0;bottom=0;right=0;align=left;spacingLeft=2;overflow=hidden;fontSize=11;" parent="X4feA5MgBI4GjkRbaJ-2-282" vertex="1">
          <mxGeometry x="42" width="317" height="44" as="geometry">
            <mxRectangle width="317" height="44" as="alternateBounds" />
          </mxGeometry>
        </mxCell>
        <mxCell id="X4feA5MgBI4GjkRbaJ-2-285" value="" style="shape=partialRectangle;connectable=0;fillColor=none;top=0;left=0;bottom=0;right=0;align=left;spacingLeft=2;overflow=hidden;fontSize=11;" parent="X4feA5MgBI4GjkRbaJ-2-282" vertex="1">
          <mxGeometry x="359" width="22" height="44" as="geometry">
            <mxRectangle width="22" height="44" as="alternateBounds" />
          </mxGeometry>
        </mxCell>
        <mxCell id="X4feA5MgBI4GjkRbaJ-2-286" value="功能描述" style="shape=partialRectangle;connectable=0;fillColor=none;top=0;left=0;bottom=0;right=0;align=left;spacingLeft=2;overflow=hidden;fontSize=11;" parent="X4feA5MgBI4GjkRbaJ-2-282" vertex="1">
          <mxGeometry x="381" width="48" height="44" as="geometry">
            <mxRectangle width="48" height="44" as="alternateBounds" />
          </mxGeometry>
        </mxCell>
        <mxCell id="X4feA5MgBI4GjkRbaJ-2-287" style="shape=tableRow;horizontal=0;startSize=0;swimlaneHead=0;swimlaneBody=0;fillColor=none;collapsible=0;dropTarget=0;points=[[0,0.5],[1,0.5]];portConstraint=eastwest;top=0;left=0;right=0;bottom=0;" parent="X4feA5MgBI4GjkRbaJ-2-261" vertex="1">
          <mxGeometry y="245" width="429" height="44" as="geometry" />
        </mxCell>
        <mxCell id="X4feA5MgBI4GjkRbaJ-2-288" value="varchar" style="shape=partialRectangle;connectable=0;fillColor=none;top=0;left=0;bottom=0;right=0;align=left;spacingLeft=2;overflow=hidden;fontSize=11;" parent="X4feA5MgBI4GjkRbaJ-2-287" vertex="1">
          <mxGeometry width="42" height="44" as="geometry">
            <mxRectangle width="42" height="44" as="alternateBounds" />
          </mxGeometry>
        </mxCell>
        <mxCell id="X4feA5MgBI4GjkRbaJ-2-289" value="req_url" style="shape=partialRectangle;connectable=0;fillColor=none;top=0;left=0;bottom=0;right=0;align=left;spacingLeft=2;overflow=hidden;fontSize=11;" parent="X4feA5MgBI4GjkRbaJ-2-287" vertex="1">
          <mxGeometry x="42" width="317" height="44" as="geometry">
            <mxRectangle width="317" height="44" as="alternateBounds" />
          </mxGeometry>
        </mxCell>
        <mxCell id="X4feA5MgBI4GjkRbaJ-2-290" value="" style="shape=partialRectangle;connectable=0;fillColor=none;top=0;left=0;bottom=0;right=0;align=left;spacingLeft=2;overflow=hidden;fontSize=11;" parent="X4feA5MgBI4GjkRbaJ-2-287" vertex="1">
          <mxGeometry x="359" width="22" height="44" as="geometry">
            <mxRectangle width="22" height="44" as="alternateBounds" />
          </mxGeometry>
        </mxCell>
        <mxCell id="X4feA5MgBI4GjkRbaJ-2-291" value="" style="shape=partialRectangle;connectable=0;fillColor=none;top=0;left=0;bottom=0;right=0;align=left;spacingLeft=2;overflow=hidden;fontSize=11;" parent="X4feA5MgBI4GjkRbaJ-2-287" vertex="1">
          <mxGeometry x="381" width="48" height="44" as="geometry">
            <mxRectangle width="48" height="44" as="alternateBounds" />
          </mxGeometry>
        </mxCell>
        <mxCell id="X4feA5MgBI4GjkRbaJ-2-292" style="shape=tableRow;horizontal=0;startSize=0;swimlaneHead=0;swimlaneBody=0;fillColor=none;collapsible=0;dropTarget=0;points=[[0,0.5],[1,0.5]];portConstraint=eastwest;top=0;left=0;right=0;bottom=0;" parent="X4feA5MgBI4GjkRbaJ-2-261" vertex="1">
          <mxGeometry y="289" width="429" height="44" as="geometry" />
        </mxCell>
        <mxCell id="X4feA5MgBI4GjkRbaJ-2-293" value="varchar" style="shape=partialRectangle;connectable=0;fillColor=none;top=0;left=0;bottom=0;right=0;align=left;spacingLeft=2;overflow=hidden;fontSize=11;" parent="X4feA5MgBI4GjkRbaJ-2-292" vertex="1">
          <mxGeometry width="42" height="44" as="geometry">
            <mxRectangle width="42" height="44" as="alternateBounds" />
          </mxGeometry>
        </mxCell>
        <mxCell id="X4feA5MgBI4GjkRbaJ-2-294" value="req_method" style="shape=partialRectangle;connectable=0;fillColor=none;top=0;left=0;bottom=0;right=0;align=left;spacingLeft=2;overflow=hidden;fontSize=11;" parent="X4feA5MgBI4GjkRbaJ-2-292" vertex="1">
          <mxGeometry x="42" width="317" height="44" as="geometry">
            <mxRectangle width="317" height="44" as="alternateBounds" />
          </mxGeometry>
        </mxCell>
        <mxCell id="X4feA5MgBI4GjkRbaJ-2-295" value="" style="shape=partialRectangle;connectable=0;fillColor=none;top=0;left=0;bottom=0;right=0;align=left;spacingLeft=2;overflow=hidden;fontSize=11;" parent="X4feA5MgBI4GjkRbaJ-2-292" vertex="1">
          <mxGeometry x="359" width="22" height="44" as="geometry">
            <mxRectangle width="22" height="44" as="alternateBounds" />
          </mxGeometry>
        </mxCell>
        <mxCell id="X4feA5MgBI4GjkRbaJ-2-296" value="" style="shape=partialRectangle;connectable=0;fillColor=none;top=0;left=0;bottom=0;right=0;align=left;spacingLeft=2;overflow=hidden;fontSize=11;" parent="X4feA5MgBI4GjkRbaJ-2-292" vertex="1">
          <mxGeometry x="381" width="48" height="44" as="geometry">
            <mxRectangle width="48" height="44" as="alternateBounds" />
          </mxGeometry>
        </mxCell>
        <mxCell id="X4feA5MgBI4GjkRbaJ-2-297" style="shape=tableRow;horizontal=0;startSize=0;swimlaneHead=0;swimlaneBody=0;fillColor=none;collapsible=0;dropTarget=0;points=[[0,0.5],[1,0.5]];portConstraint=eastwest;top=0;left=0;right=0;bottom=0;" parent="X4feA5MgBI4GjkRbaJ-2-261" vertex="1">
          <mxGeometry y="333" width="429" height="44" as="geometry" />
        </mxCell>
        <mxCell id="X4feA5MgBI4GjkRbaJ-2-298" value="varchar" style="shape=partialRectangle;connectable=0;fillColor=none;top=0;left=0;bottom=0;right=0;align=left;spacingLeft=2;overflow=hidden;fontSize=11;" parent="X4feA5MgBI4GjkRbaJ-2-297" vertex="1">
          <mxGeometry width="42" height="44" as="geometry">
            <mxRectangle width="42" height="44" as="alternateBounds" />
          </mxGeometry>
        </mxCell>
        <mxCell id="X4feA5MgBI4GjkRbaJ-2-299" value="req_headers" style="shape=partialRectangle;connectable=0;fillColor=none;top=0;left=0;bottom=0;right=0;align=left;spacingLeft=2;overflow=hidden;fontSize=11;" parent="X4feA5MgBI4GjkRbaJ-2-297" vertex="1">
          <mxGeometry x="42" width="317" height="44" as="geometry">
            <mxRectangle width="317" height="44" as="alternateBounds" />
          </mxGeometry>
        </mxCell>
        <mxCell id="X4feA5MgBI4GjkRbaJ-2-300" value="" style="shape=partialRectangle;connectable=0;fillColor=none;top=0;left=0;bottom=0;right=0;align=left;spacingLeft=2;overflow=hidden;fontSize=11;" parent="X4feA5MgBI4GjkRbaJ-2-297" vertex="1">
          <mxGeometry x="359" width="22" height="44" as="geometry">
            <mxRectangle width="22" height="44" as="alternateBounds" />
          </mxGeometry>
        </mxCell>
        <mxCell id="X4feA5MgBI4GjkRbaJ-2-301" value="" style="shape=partialRectangle;connectable=0;fillColor=none;top=0;left=0;bottom=0;right=0;align=left;spacingLeft=2;overflow=hidden;fontSize=11;" parent="X4feA5MgBI4GjkRbaJ-2-297" vertex="1">
          <mxGeometry x="381" width="48" height="44" as="geometry">
            <mxRectangle width="48" height="44" as="alternateBounds" />
          </mxGeometry>
        </mxCell>
        <mxCell id="X4feA5MgBI4GjkRbaJ-2-302" style="shape=tableRow;horizontal=0;startSize=0;swimlaneHead=0;swimlaneBody=0;fillColor=none;collapsible=0;dropTarget=0;points=[[0,0.5],[1,0.5]];portConstraint=eastwest;top=0;left=0;right=0;bottom=0;" parent="X4feA5MgBI4GjkRbaJ-2-261" vertex="1">
          <mxGeometry y="377" width="429" height="44" as="geometry" />
        </mxCell>
        <mxCell id="X4feA5MgBI4GjkRbaJ-2-303" value="json" style="shape=partialRectangle;connectable=0;fillColor=none;top=0;left=0;bottom=0;right=0;align=left;spacingLeft=2;overflow=hidden;fontSize=11;" parent="X4feA5MgBI4GjkRbaJ-2-302" vertex="1">
          <mxGeometry width="42" height="44" as="geometry">
            <mxRectangle width="42" height="44" as="alternateBounds" />
          </mxGeometry>
        </mxCell>
        <mxCell id="X4feA5MgBI4GjkRbaJ-2-304" value="input_schema" style="shape=partialRectangle;connectable=0;fillColor=none;top=0;left=0;bottom=0;right=0;align=left;spacingLeft=2;overflow=hidden;fontSize=11;" parent="X4feA5MgBI4GjkRbaJ-2-302" vertex="1">
          <mxGeometry x="42" width="317" height="44" as="geometry">
            <mxRectangle width="317" height="44" as="alternateBounds" />
          </mxGeometry>
        </mxCell>
        <mxCell id="X4feA5MgBI4GjkRbaJ-2-305" value="" style="shape=partialRectangle;connectable=0;fillColor=none;top=0;left=0;bottom=0;right=0;align=left;spacingLeft=2;overflow=hidden;fontSize=11;" parent="X4feA5MgBI4GjkRbaJ-2-302" vertex="1">
          <mxGeometry x="359" width="22" height="44" as="geometry">
            <mxRectangle width="22" height="44" as="alternateBounds" />
          </mxGeometry>
        </mxCell>
        <mxCell id="X4feA5MgBI4GjkRbaJ-2-306" value="输入schema" style="shape=partialRectangle;connectable=0;fillColor=none;top=0;left=0;bottom=0;right=0;align=left;spacingLeft=2;overflow=hidden;fontSize=11;" parent="X4feA5MgBI4GjkRbaJ-2-302" vertex="1">
          <mxGeometry x="381" width="48" height="44" as="geometry">
            <mxRectangle width="48" height="44" as="alternateBounds" />
          </mxGeometry>
        </mxCell>
        <mxCell id="X4feA5MgBI4GjkRbaJ-2-307" style="shape=tableRow;horizontal=0;startSize=0;swimlaneHead=0;swimlaneBody=0;fillColor=none;collapsible=0;dropTarget=0;points=[[0,0.5],[1,0.5]];portConstraint=eastwest;top=0;left=0;right=0;bottom=0;" parent="X4feA5MgBI4GjkRbaJ-2-261" vertex="1">
          <mxGeometry y="421" width="429" height="44" as="geometry" />
        </mxCell>
        <mxCell id="X4feA5MgBI4GjkRbaJ-2-308" value="json" style="shape=partialRectangle;connectable=0;fillColor=none;top=0;left=0;bottom=0;right=0;align=left;spacingLeft=2;overflow=hidden;fontSize=11;" parent="X4feA5MgBI4GjkRbaJ-2-307" vertex="1">
          <mxGeometry width="42" height="44" as="geometry">
            <mxRectangle width="42" height="44" as="alternateBounds" />
          </mxGeometry>
        </mxCell>
        <mxCell id="X4feA5MgBI4GjkRbaJ-2-309" value="output_schema" style="shape=partialRectangle;connectable=0;fillColor=none;top=0;left=0;bottom=0;right=0;align=left;spacingLeft=2;overflow=hidden;fontSize=11;" parent="X4feA5MgBI4GjkRbaJ-2-307" vertex="1">
          <mxGeometry x="42" width="317" height="44" as="geometry">
            <mxRectangle width="317" height="44" as="alternateBounds" />
          </mxGeometry>
        </mxCell>
        <mxCell id="X4feA5MgBI4GjkRbaJ-2-310" value="" style="shape=partialRectangle;connectable=0;fillColor=none;top=0;left=0;bottom=0;right=0;align=left;spacingLeft=2;overflow=hidden;fontSize=11;" parent="X4feA5MgBI4GjkRbaJ-2-307" vertex="1">
          <mxGeometry x="359" width="22" height="44" as="geometry">
            <mxRectangle width="22" height="44" as="alternateBounds" />
          </mxGeometry>
        </mxCell>
        <mxCell id="X4feA5MgBI4GjkRbaJ-2-311" value="输出schema" style="shape=partialRectangle;connectable=0;fillColor=none;top=0;left=0;bottom=0;right=0;align=left;spacingLeft=2;overflow=hidden;fontSize=11;" parent="X4feA5MgBI4GjkRbaJ-2-307" vertex="1">
          <mxGeometry x="381" width="48" height="44" as="geometry">
            <mxRectangle width="48" height="44" as="alternateBounds" />
          </mxGeometry>
        </mxCell>
        <mxCell id="X4feA5MgBI4GjkRbaJ-2-312" style="shape=tableRow;horizontal=0;startSize=0;swimlaneHead=0;swimlaneBody=0;fillColor=none;collapsible=0;dropTarget=0;points=[[0,0.5],[1,0.5]];portConstraint=eastwest;top=0;left=0;right=0;bottom=0;" parent="X4feA5MgBI4GjkRbaJ-2-261" vertex="1">
          <mxGeometry y="465" width="429" height="44" as="geometry" />
        </mxCell>
        <mxCell id="X4feA5MgBI4GjkRbaJ-2-313" value="bigint" style="shape=partialRectangle;connectable=0;fillColor=none;top=0;left=0;bottom=0;right=0;align=left;spacingLeft=2;overflow=hidden;fontSize=11;" parent="X4feA5MgBI4GjkRbaJ-2-312" vertex="1">
          <mxGeometry width="42" height="44" as="geometry">
            <mxRectangle width="42" height="44" as="alternateBounds" />
          </mxGeometry>
        </mxCell>
        <mxCell id="X4feA5MgBI4GjkRbaJ-2-314" value="provider_app_num" style="shape=partialRectangle;connectable=0;fillColor=none;top=0;left=0;bottom=0;right=0;align=left;spacingLeft=2;overflow=hidden;fontSize=11;" parent="X4feA5MgBI4GjkRbaJ-2-312" vertex="1">
          <mxGeometry x="42" width="317" height="44" as="geometry">
            <mxRectangle width="317" height="44" as="alternateBounds" />
          </mxGeometry>
        </mxCell>
        <mxCell id="X4feA5MgBI4GjkRbaJ-2-315" value="FK" style="shape=partialRectangle;connectable=0;fillColor=none;top=0;left=0;bottom=0;right=0;align=left;spacingLeft=2;overflow=hidden;fontSize=11;" parent="X4feA5MgBI4GjkRbaJ-2-312" vertex="1">
          <mxGeometry x="359" width="22" height="44" as="geometry">
            <mxRectangle width="22" height="44" as="alternateBounds" />
          </mxGeometry>
        </mxCell>
        <mxCell id="X4feA5MgBI4GjkRbaJ-2-316" value="提供者app编号" style="shape=partialRectangle;connectable=0;fillColor=none;top=0;left=0;bottom=0;right=0;align=left;spacingLeft=2;overflow=hidden;fontSize=11;" parent="X4feA5MgBI4GjkRbaJ-2-312" vertex="1">
          <mxGeometry x="381" width="48" height="44" as="geometry">
            <mxRectangle width="48" height="44" as="alternateBounds" />
          </mxGeometry>
        </mxCell>
        <mxCell id="X4feA5MgBI4GjkRbaJ-2-317" value="origin_provider_config" style="shape=table;startSize=25;container=1;collapsible=0;childLayout=tableLayout;fixedRows=1;rowLines=1;fontStyle=1;align=center;resizeLast=1;" parent="1" vertex="1">
          <mxGeometry x="318" y="1994" width="333" height="257" as="geometry" />
        </mxCell>
        <mxCell id="X4feA5MgBI4GjkRbaJ-2-318" style="shape=tableRow;horizontal=0;startSize=0;swimlaneHead=0;swimlaneBody=0;fillColor=none;collapsible=0;dropTarget=0;points=[[0,0.5],[1,0.5]];portConstraint=eastwest;top=0;left=0;right=0;bottom=0;" parent="X4feA5MgBI4GjkRbaJ-2-317" vertex="1">
          <mxGeometry y="25" width="333" height="46" as="geometry" />
        </mxCell>
        <mxCell id="X4feA5MgBI4GjkRbaJ-2-319" value="bigint" style="shape=partialRectangle;connectable=0;fillColor=none;top=0;left=0;bottom=0;right=0;align=left;spacingLeft=2;overflow=hidden;fontSize=11;" parent="X4feA5MgBI4GjkRbaJ-2-318" vertex="1">
          <mxGeometry width="42" height="46" as="geometry">
            <mxRectangle width="42" height="46" as="alternateBounds" />
          </mxGeometry>
        </mxCell>
        <mxCell id="X4feA5MgBI4GjkRbaJ-2-320" value="id" style="shape=partialRectangle;connectable=0;fillColor=none;top=0;left=0;bottom=0;right=0;align=left;spacingLeft=2;overflow=hidden;fontSize=11;" parent="X4feA5MgBI4GjkRbaJ-2-318" vertex="1">
          <mxGeometry x="42" width="227" height="46" as="geometry">
            <mxRectangle width="227" height="46" as="alternateBounds" />
          </mxGeometry>
        </mxCell>
        <mxCell id="X4feA5MgBI4GjkRbaJ-2-321" value="PK" style="shape=partialRectangle;connectable=0;fillColor=none;top=0;left=0;bottom=0;right=0;align=left;spacingLeft=2;overflow=hidden;fontSize=11;" parent="X4feA5MgBI4GjkRbaJ-2-318" vertex="1">
          <mxGeometry x="269" width="22" height="46" as="geometry">
            <mxRectangle width="22" height="46" as="alternateBounds" />
          </mxGeometry>
        </mxCell>
        <mxCell id="X4feA5MgBI4GjkRbaJ-2-322" value="主键" style="shape=partialRectangle;connectable=0;fillColor=none;top=0;left=0;bottom=0;right=0;align=left;spacingLeft=2;overflow=hidden;fontSize=11;" parent="X4feA5MgBI4GjkRbaJ-2-318" vertex="1">
          <mxGeometry x="291" width="42" height="46" as="geometry">
            <mxRectangle width="42" height="46" as="alternateBounds" />
          </mxGeometry>
        </mxCell>
        <mxCell id="X4feA5MgBI4GjkRbaJ-2-323" style="shape=tableRow;horizontal=0;startSize=0;swimlaneHead=0;swimlaneBody=0;fillColor=none;collapsible=0;dropTarget=0;points=[[0,0.5],[1,0.5]];portConstraint=eastwest;top=0;left=0;right=0;bottom=0;" parent="X4feA5MgBI4GjkRbaJ-2-317" vertex="1">
          <mxGeometry y="71" width="333" height="46" as="geometry" />
        </mxCell>
        <mxCell id="X4feA5MgBI4GjkRbaJ-2-324" value="bigint" style="shape=partialRectangle;connectable=0;fillColor=none;top=0;left=0;bottom=0;right=0;align=left;spacingLeft=2;overflow=hidden;fontSize=11;" parent="X4feA5MgBI4GjkRbaJ-2-323" vertex="1">
          <mxGeometry width="42" height="46" as="geometry">
            <mxRectangle width="42" height="46" as="alternateBounds" />
          </mxGeometry>
        </mxCell>
        <mxCell id="X4feA5MgBI4GjkRbaJ-2-325" value="app_num" style="shape=partialRectangle;connectable=0;fillColor=none;top=0;left=0;bottom=0;right=0;align=left;spacingLeft=2;overflow=hidden;fontSize=11;" parent="X4feA5MgBI4GjkRbaJ-2-323" vertex="1">
          <mxGeometry x="42" width="227" height="46" as="geometry">
            <mxRectangle width="227" height="46" as="alternateBounds" />
          </mxGeometry>
        </mxCell>
        <mxCell id="X4feA5MgBI4GjkRbaJ-2-326" value="FK" style="shape=partialRectangle;connectable=0;fillColor=none;top=0;left=0;bottom=0;right=0;align=left;spacingLeft=2;overflow=hidden;fontSize=11;" parent="X4feA5MgBI4GjkRbaJ-2-323" vertex="1">
          <mxGeometry x="269" width="22" height="46" as="geometry">
            <mxRectangle width="22" height="46" as="alternateBounds" />
          </mxGeometry>
        </mxCell>
        <mxCell id="X4feA5MgBI4GjkRbaJ-2-327" value="app编号" style="shape=partialRectangle;connectable=0;fillColor=none;top=0;left=0;bottom=0;right=0;align=left;spacingLeft=2;overflow=hidden;fontSize=11;" parent="X4feA5MgBI4GjkRbaJ-2-323" vertex="1">
          <mxGeometry x="291" width="42" height="46" as="geometry">
            <mxRectangle width="42" height="46" as="alternateBounds" />
          </mxGeometry>
        </mxCell>
        <mxCell id="X4feA5MgBI4GjkRbaJ-2-328" style="shape=tableRow;horizontal=0;startSize=0;swimlaneHead=0;swimlaneBody=0;fillColor=none;collapsible=0;dropTarget=0;points=[[0,0.5],[1,0.5]];portConstraint=eastwest;top=0;left=0;right=0;bottom=0;" parent="X4feA5MgBI4GjkRbaJ-2-317" vertex="1">
          <mxGeometry y="117" width="333" height="46" as="geometry" />
        </mxCell>
        <mxCell id="X4feA5MgBI4GjkRbaJ-2-329" value="varchar" style="shape=partialRectangle;connectable=0;fillColor=none;top=0;left=0;bottom=0;right=0;align=left;spacingLeft=2;overflow=hidden;fontSize=11;" parent="X4feA5MgBI4GjkRbaJ-2-328" vertex="1">
          <mxGeometry width="42" height="46" as="geometry">
            <mxRectangle width="42" height="46" as="alternateBounds" />
          </mxGeometry>
        </mxCell>
        <mxCell id="X4feA5MgBI4GjkRbaJ-2-330" value="env" style="shape=partialRectangle;connectable=0;fillColor=none;top=0;left=0;bottom=0;right=0;align=left;spacingLeft=2;overflow=hidden;fontSize=11;" parent="X4feA5MgBI4GjkRbaJ-2-328" vertex="1">
          <mxGeometry x="42" width="227" height="46" as="geometry">
            <mxRectangle width="227" height="46" as="alternateBounds" />
          </mxGeometry>
        </mxCell>
        <mxCell id="X4feA5MgBI4GjkRbaJ-2-331" value="" style="shape=partialRectangle;connectable=0;fillColor=none;top=0;left=0;bottom=0;right=0;align=left;spacingLeft=2;overflow=hidden;fontSize=11;" parent="X4feA5MgBI4GjkRbaJ-2-328" vertex="1">
          <mxGeometry x="269" width="22" height="46" as="geometry">
            <mxRectangle width="22" height="46" as="alternateBounds" />
          </mxGeometry>
        </mxCell>
        <mxCell id="X4feA5MgBI4GjkRbaJ-2-332" value="环境" style="shape=partialRectangle;connectable=0;fillColor=none;top=0;left=0;bottom=0;right=0;align=left;spacingLeft=2;overflow=hidden;fontSize=11;" parent="X4feA5MgBI4GjkRbaJ-2-328" vertex="1">
          <mxGeometry x="291" width="42" height="46" as="geometry">
            <mxRectangle width="42" height="46" as="alternateBounds" />
          </mxGeometry>
        </mxCell>
        <mxCell id="X4feA5MgBI4GjkRbaJ-2-333" style="shape=tableRow;horizontal=0;startSize=0;swimlaneHead=0;swimlaneBody=0;fillColor=none;collapsible=0;dropTarget=0;points=[[0,0.5],[1,0.5]];portConstraint=eastwest;top=0;left=0;right=0;bottom=0;" parent="X4feA5MgBI4GjkRbaJ-2-317" vertex="1">
          <mxGeometry y="163" width="333" height="46" as="geometry" />
        </mxCell>
        <mxCell id="X4feA5MgBI4GjkRbaJ-2-334" value="varchar" style="shape=partialRectangle;connectable=0;fillColor=none;top=0;left=0;bottom=0;right=0;align=left;spacingLeft=2;overflow=hidden;fontSize=11;" parent="X4feA5MgBI4GjkRbaJ-2-333" vertex="1">
          <mxGeometry width="42" height="46" as="geometry">
            <mxRectangle width="42" height="46" as="alternateBounds" />
          </mxGeometry>
        </mxCell>
        <mxCell id="X4feA5MgBI4GjkRbaJ-2-335" value="config_key" style="shape=partialRectangle;connectable=0;fillColor=none;top=0;left=0;bottom=0;right=0;align=left;spacingLeft=2;overflow=hidden;fontSize=11;" parent="X4feA5MgBI4GjkRbaJ-2-333" vertex="1">
          <mxGeometry x="42" width="227" height="46" as="geometry">
            <mxRectangle width="227" height="46" as="alternateBounds" />
          </mxGeometry>
        </mxCell>
        <mxCell id="X4feA5MgBI4GjkRbaJ-2-336" value="" style="shape=partialRectangle;connectable=0;fillColor=none;top=0;left=0;bottom=0;right=0;align=left;spacingLeft=2;overflow=hidden;fontSize=11;" parent="X4feA5MgBI4GjkRbaJ-2-333" vertex="1">
          <mxGeometry x="269" width="22" height="46" as="geometry">
            <mxRectangle width="22" height="46" as="alternateBounds" />
          </mxGeometry>
        </mxCell>
        <mxCell id="X4feA5MgBI4GjkRbaJ-2-337" value="配置key" style="shape=partialRectangle;connectable=0;fillColor=none;top=0;left=0;bottom=0;right=0;align=left;spacingLeft=2;overflow=hidden;fontSize=11;" parent="X4feA5MgBI4GjkRbaJ-2-333" vertex="1">
          <mxGeometry x="291" width="42" height="46" as="geometry">
            <mxRectangle width="42" height="46" as="alternateBounds" />
          </mxGeometry>
        </mxCell>
        <mxCell id="X4feA5MgBI4GjkRbaJ-2-338" style="shape=tableRow;horizontal=0;startSize=0;swimlaneHead=0;swimlaneBody=0;fillColor=none;collapsible=0;dropTarget=0;points=[[0,0.5],[1,0.5]];portConstraint=eastwest;top=0;left=0;right=0;bottom=0;" parent="X4feA5MgBI4GjkRbaJ-2-317" vertex="1">
          <mxGeometry y="209" width="333" height="46" as="geometry" />
        </mxCell>
        <mxCell id="X4feA5MgBI4GjkRbaJ-2-339" value="varchar" style="shape=partialRectangle;connectable=0;fillColor=none;top=0;left=0;bottom=0;right=0;align=left;spacingLeft=2;overflow=hidden;fontSize=11;" parent="X4feA5MgBI4GjkRbaJ-2-338" vertex="1">
          <mxGeometry width="42" height="46" as="geometry">
            <mxRectangle width="42" height="46" as="alternateBounds" />
          </mxGeometry>
        </mxCell>
        <mxCell id="X4feA5MgBI4GjkRbaJ-2-340" value="config_value" style="shape=partialRectangle;connectable=0;fillColor=none;top=0;left=0;bottom=0;right=0;align=left;spacingLeft=2;overflow=hidden;fontSize=11;" parent="X4feA5MgBI4GjkRbaJ-2-338" vertex="1">
          <mxGeometry x="42" width="227" height="46" as="geometry">
            <mxRectangle width="227" height="46" as="alternateBounds" />
          </mxGeometry>
        </mxCell>
        <mxCell id="X4feA5MgBI4GjkRbaJ-2-341" value="" style="shape=partialRectangle;connectable=0;fillColor=none;top=0;left=0;bottom=0;right=0;align=left;spacingLeft=2;overflow=hidden;fontSize=11;" parent="X4feA5MgBI4GjkRbaJ-2-338" vertex="1">
          <mxGeometry x="269" width="22" height="46" as="geometry">
            <mxRectangle width="22" height="46" as="alternateBounds" />
          </mxGeometry>
        </mxCell>
        <mxCell id="X4feA5MgBI4GjkRbaJ-2-342" value="配置value" style="shape=partialRectangle;connectable=0;fillColor=none;top=0;left=0;bottom=0;right=0;align=left;spacingLeft=2;overflow=hidden;fontSize=11;" parent="X4feA5MgBI4GjkRbaJ-2-338" vertex="1">
          <mxGeometry x="291" width="42" height="46" as="geometry">
            <mxRectangle width="42" height="46" as="alternateBounds" />
          </mxGeometry>
        </mxCell>
        <mxCell id="X4feA5MgBI4GjkRbaJ-2-343" value="virtual_server" style="shape=table;startSize=25;container=1;collapsible=0;childLayout=tableLayout;fixedRows=1;rowLines=1;fontStyle=1;align=center;resizeLast=1;" parent="1" vertex="1">
          <mxGeometry x="1254" y="170" width="341" height="342" as="geometry" />
        </mxCell>
        <mxCell id="X4feA5MgBI4GjkRbaJ-2-344" style="shape=tableRow;horizontal=0;startSize=0;swimlaneHead=0;swimlaneBody=0;fillColor=none;collapsible=0;dropTarget=0;points=[[0,0.5],[1,0.5]];portConstraint=eastwest;top=0;left=0;right=0;bottom=0;" parent="X4feA5MgBI4GjkRbaJ-2-343" vertex="1">
          <mxGeometry y="25" width="341" height="45" as="geometry" />
        </mxCell>
        <mxCell id="X4feA5MgBI4GjkRbaJ-2-345" value="bigint" style="shape=partialRectangle;connectable=0;fillColor=none;top=0;left=0;bottom=0;right=0;align=left;spacingLeft=2;overflow=hidden;fontSize=11;" parent="X4feA5MgBI4GjkRbaJ-2-344" vertex="1">
          <mxGeometry width="42" height="45" as="geometry">
            <mxRectangle width="42" height="45" as="alternateBounds" />
          </mxGeometry>
        </mxCell>
        <mxCell id="X4feA5MgBI4GjkRbaJ-2-346" value="id" style="shape=partialRectangle;connectable=0;fillColor=none;top=0;left=0;bottom=0;right=0;align=left;spacingLeft=2;overflow=hidden;fontSize=11;" parent="X4feA5MgBI4GjkRbaJ-2-344" vertex="1">
          <mxGeometry x="42" width="235" height="45" as="geometry">
            <mxRectangle width="235" height="45" as="alternateBounds" />
          </mxGeometry>
        </mxCell>
        <mxCell id="X4feA5MgBI4GjkRbaJ-2-347" value="PK" style="shape=partialRectangle;connectable=0;fillColor=none;top=0;left=0;bottom=0;right=0;align=left;spacingLeft=2;overflow=hidden;fontSize=11;" parent="X4feA5MgBI4GjkRbaJ-2-344" vertex="1">
          <mxGeometry x="277" width="22" height="45" as="geometry">
            <mxRectangle width="22" height="45" as="alternateBounds" />
          </mxGeometry>
        </mxCell>
        <mxCell id="X4feA5MgBI4GjkRbaJ-2-348" value="主键" style="shape=partialRectangle;connectable=0;fillColor=none;top=0;left=0;bottom=0;right=0;align=left;spacingLeft=2;overflow=hidden;fontSize=11;" parent="X4feA5MgBI4GjkRbaJ-2-344" vertex="1">
          <mxGeometry x="299" width="42" height="45" as="geometry">
            <mxRectangle width="42" height="45" as="alternateBounds" />
          </mxGeometry>
        </mxCell>
        <mxCell id="X4feA5MgBI4GjkRbaJ-2-349" style="shape=tableRow;horizontal=0;startSize=0;swimlaneHead=0;swimlaneBody=0;fillColor=none;collapsible=0;dropTarget=0;points=[[0,0.5],[1,0.5]];portConstraint=eastwest;top=0;left=0;right=0;bottom=0;" parent="X4feA5MgBI4GjkRbaJ-2-343" vertex="1">
          <mxGeometry y="70" width="341" height="45" as="geometry" />
        </mxCell>
        <mxCell id="X4feA5MgBI4GjkRbaJ-2-350" value="varchar" style="shape=partialRectangle;connectable=0;fillColor=none;top=0;left=0;bottom=0;right=0;align=left;spacingLeft=2;overflow=hidden;fontSize=11;" parent="X4feA5MgBI4GjkRbaJ-2-349" vertex="1">
          <mxGeometry width="42" height="45" as="geometry">
            <mxRectangle width="42" height="45" as="alternateBounds" />
          </mxGeometry>
        </mxCell>
        <mxCell id="X4feA5MgBI4GjkRbaJ-2-351" value="vserver_id" style="shape=partialRectangle;connectable=0;fillColor=none;top=0;left=0;bottom=0;right=0;align=left;spacingLeft=2;overflow=hidden;fontSize=11;" parent="X4feA5MgBI4GjkRbaJ-2-349" vertex="1">
          <mxGeometry x="42" width="235" height="45" as="geometry">
            <mxRectangle width="235" height="45" as="alternateBounds" />
          </mxGeometry>
        </mxCell>
        <mxCell id="X4feA5MgBI4GjkRbaJ-2-352" value="UK" style="shape=partialRectangle;connectable=0;fillColor=none;top=0;left=0;bottom=0;right=0;align=left;spacingLeft=2;overflow=hidden;fontSize=11;" parent="X4feA5MgBI4GjkRbaJ-2-349" vertex="1">
          <mxGeometry x="277" width="22" height="45" as="geometry">
            <mxRectangle width="22" height="45" as="alternateBounds" />
          </mxGeometry>
        </mxCell>
        <mxCell id="X4feA5MgBI4GjkRbaJ-2-353" value="虚拟服务器id" style="shape=partialRectangle;connectable=0;fillColor=none;top=0;left=0;bottom=0;right=0;align=left;spacingLeft=2;overflow=hidden;fontSize=11;" parent="X4feA5MgBI4GjkRbaJ-2-349" vertex="1">
          <mxGeometry x="299" width="42" height="45" as="geometry">
            <mxRectangle width="42" height="45" as="alternateBounds" />
          </mxGeometry>
        </mxCell>
        <mxCell id="X4feA5MgBI4GjkRbaJ-2-354" style="shape=tableRow;horizontal=0;startSize=0;swimlaneHead=0;swimlaneBody=0;fillColor=none;collapsible=0;dropTarget=0;points=[[0,0.5],[1,0.5]];portConstraint=eastwest;top=0;left=0;right=0;bottom=0;" parent="X4feA5MgBI4GjkRbaJ-2-343" vertex="1">
          <mxGeometry y="115" width="341" height="45" as="geometry" />
        </mxCell>
        <mxCell id="X4feA5MgBI4GjkRbaJ-2-355" value="varchar" style="shape=partialRectangle;connectable=0;fillColor=none;top=0;left=0;bottom=0;right=0;align=left;spacingLeft=2;overflow=hidden;fontSize=11;" parent="X4feA5MgBI4GjkRbaJ-2-354" vertex="1">
          <mxGeometry width="42" height="45" as="geometry">
            <mxRectangle width="42" height="45" as="alternateBounds" />
          </mxGeometry>
        </mxCell>
        <mxCell id="X4feA5MgBI4GjkRbaJ-2-356" value="userid" style="shape=partialRectangle;connectable=0;fillColor=none;top=0;left=0;bottom=0;right=0;align=left;spacingLeft=2;overflow=hidden;fontSize=11;" parent="X4feA5MgBI4GjkRbaJ-2-354" vertex="1">
          <mxGeometry x="42" width="235" height="45" as="geometry">
            <mxRectangle width="235" height="45" as="alternateBounds" />
          </mxGeometry>
        </mxCell>
        <mxCell id="X4feA5MgBI4GjkRbaJ-2-357" value="" style="shape=partialRectangle;connectable=0;fillColor=none;top=0;left=0;bottom=0;right=0;align=left;spacingLeft=2;overflow=hidden;fontSize=11;" parent="X4feA5MgBI4GjkRbaJ-2-354" vertex="1">
          <mxGeometry x="277" width="22" height="45" as="geometry">
            <mxRectangle width="22" height="45" as="alternateBounds" />
          </mxGeometry>
        </mxCell>
        <mxCell id="X4feA5MgBI4GjkRbaJ-2-358" value="用户id" style="shape=partialRectangle;connectable=0;fillColor=none;top=0;left=0;bottom=0;right=0;align=left;spacingLeft=2;overflow=hidden;fontSize=11;" parent="X4feA5MgBI4GjkRbaJ-2-354" vertex="1">
          <mxGeometry x="299" width="42" height="45" as="geometry">
            <mxRectangle width="42" height="45" as="alternateBounds" />
          </mxGeometry>
        </mxCell>
        <mxCell id="X4feA5MgBI4GjkRbaJ-2-359" style="shape=tableRow;horizontal=0;startSize=0;swimlaneHead=0;swimlaneBody=0;fillColor=none;collapsible=0;dropTarget=0;points=[[0,0.5],[1,0.5]];portConstraint=eastwest;top=0;left=0;right=0;bottom=0;" parent="X4feA5MgBI4GjkRbaJ-2-343" vertex="1">
          <mxGeometry y="160" width="341" height="45" as="geometry" />
        </mxCell>
        <mxCell id="X4feA5MgBI4GjkRbaJ-2-360" value="varchar" style="shape=partialRectangle;connectable=0;fillColor=none;top=0;left=0;bottom=0;right=0;align=left;spacingLeft=2;overflow=hidden;fontSize=11;" parent="X4feA5MgBI4GjkRbaJ-2-359" vertex="1">
          <mxGeometry width="42" height="45" as="geometry">
            <mxRectangle width="42" height="45" as="alternateBounds" />
          </mxGeometry>
        </mxCell>
        <mxCell id="X4feA5MgBI4GjkRbaJ-2-361" value="name" style="shape=partialRectangle;connectable=0;fillColor=none;top=0;left=0;bottom=0;right=0;align=left;spacingLeft=2;overflow=hidden;fontSize=11;" parent="X4feA5MgBI4GjkRbaJ-2-359" vertex="1">
          <mxGeometry x="42" width="235" height="45" as="geometry">
            <mxRectangle width="235" height="45" as="alternateBounds" />
          </mxGeometry>
        </mxCell>
        <mxCell id="X4feA5MgBI4GjkRbaJ-2-362" value="" style="shape=partialRectangle;connectable=0;fillColor=none;top=0;left=0;bottom=0;right=0;align=left;spacingLeft=2;overflow=hidden;fontSize=11;" parent="X4feA5MgBI4GjkRbaJ-2-359" vertex="1">
          <mxGeometry x="277" width="22" height="45" as="geometry">
            <mxRectangle width="22" height="45" as="alternateBounds" />
          </mxGeometry>
        </mxCell>
        <mxCell id="X4feA5MgBI4GjkRbaJ-2-363" value="名称" style="shape=partialRectangle;connectable=0;fillColor=none;top=0;left=0;bottom=0;right=0;align=left;spacingLeft=2;overflow=hidden;fontSize=11;" parent="X4feA5MgBI4GjkRbaJ-2-359" vertex="1">
          <mxGeometry x="299" width="42" height="45" as="geometry">
            <mxRectangle width="42" height="45" as="alternateBounds" />
          </mxGeometry>
        </mxCell>
        <mxCell id="X4feA5MgBI4GjkRbaJ-2-364" style="shape=tableRow;horizontal=0;startSize=0;swimlaneHead=0;swimlaneBody=0;fillColor=none;collapsible=0;dropTarget=0;points=[[0,0.5],[1,0.5]];portConstraint=eastwest;top=0;left=0;right=0;bottom=0;" parent="X4feA5MgBI4GjkRbaJ-2-343" vertex="1">
          <mxGeometry y="205" width="341" height="45" as="geometry" />
        </mxCell>
        <mxCell id="X4feA5MgBI4GjkRbaJ-2-365" value="varchar" style="shape=partialRectangle;connectable=0;fillColor=none;top=0;left=0;bottom=0;right=0;align=left;spacingLeft=2;overflow=hidden;fontSize=11;" parent="X4feA5MgBI4GjkRbaJ-2-364" vertex="1">
          <mxGeometry width="42" height="45" as="geometry">
            <mxRectangle width="42" height="45" as="alternateBounds" />
          </mxGeometry>
        </mxCell>
        <mxCell id="X4feA5MgBI4GjkRbaJ-2-366" value="desc" style="shape=partialRectangle;connectable=0;fillColor=none;top=0;left=0;bottom=0;right=0;align=left;spacingLeft=2;overflow=hidden;fontSize=11;" parent="X4feA5MgBI4GjkRbaJ-2-364" vertex="1">
          <mxGeometry x="42" width="235" height="45" as="geometry">
            <mxRectangle width="235" height="45" as="alternateBounds" />
          </mxGeometry>
        </mxCell>
        <mxCell id="X4feA5MgBI4GjkRbaJ-2-367" value="" style="shape=partialRectangle;connectable=0;fillColor=none;top=0;left=0;bottom=0;right=0;align=left;spacingLeft=2;overflow=hidden;fontSize=11;" parent="X4feA5MgBI4GjkRbaJ-2-364" vertex="1">
          <mxGeometry x="277" width="22" height="45" as="geometry">
            <mxRectangle width="22" height="45" as="alternateBounds" />
          </mxGeometry>
        </mxCell>
        <mxCell id="X4feA5MgBI4GjkRbaJ-2-368" value="描述" style="shape=partialRectangle;connectable=0;fillColor=none;top=0;left=0;bottom=0;right=0;align=left;spacingLeft=2;overflow=hidden;fontSize=11;" parent="X4feA5MgBI4GjkRbaJ-2-364" vertex="1">
          <mxGeometry x="299" width="42" height="45" as="geometry">
            <mxRectangle width="42" height="45" as="alternateBounds" />
          </mxGeometry>
        </mxCell>
        <mxCell id="X4feA5MgBI4GjkRbaJ-2-369" style="shape=tableRow;horizontal=0;startSize=0;swimlaneHead=0;swimlaneBody=0;fillColor=none;collapsible=0;dropTarget=0;points=[[0,0.5],[1,0.5]];portConstraint=eastwest;top=0;left=0;right=0;bottom=0;" parent="X4feA5MgBI4GjkRbaJ-2-343" vertex="1">
          <mxGeometry y="250" width="341" height="45" as="geometry" />
        </mxCell>
        <mxCell id="X4feA5MgBI4GjkRbaJ-2-370" value="varchar" style="shape=partialRectangle;connectable=0;fillColor=none;top=0;left=0;bottom=0;right=0;align=left;spacingLeft=2;overflow=hidden;fontSize=11;" parent="X4feA5MgBI4GjkRbaJ-2-369" vertex="1">
          <mxGeometry width="42" height="45" as="geometry">
            <mxRectangle width="42" height="45" as="alternateBounds" />
          </mxGeometry>
        </mxCell>
        <mxCell id="X4feA5MgBI4GjkRbaJ-2-371" value="url" style="shape=partialRectangle;connectable=0;fillColor=none;top=0;left=0;bottom=0;right=0;align=left;spacingLeft=2;overflow=hidden;fontSize=11;" parent="X4feA5MgBI4GjkRbaJ-2-369" vertex="1">
          <mxGeometry x="42" width="235" height="45" as="geometry">
            <mxRectangle width="235" height="45" as="alternateBounds" />
          </mxGeometry>
        </mxCell>
        <mxCell id="X4feA5MgBI4GjkRbaJ-2-372" value="" style="shape=partialRectangle;connectable=0;fillColor=none;top=0;left=0;bottom=0;right=0;align=left;spacingLeft=2;overflow=hidden;fontSize=11;" parent="X4feA5MgBI4GjkRbaJ-2-369" vertex="1">
          <mxGeometry x="277" width="22" height="45" as="geometry">
            <mxRectangle width="22" height="45" as="alternateBounds" />
          </mxGeometry>
        </mxCell>
        <mxCell id="X4feA5MgBI4GjkRbaJ-2-373" value="url" style="shape=partialRectangle;connectable=0;fillColor=none;top=0;left=0;bottom=0;right=0;align=left;spacingLeft=2;overflow=hidden;fontSize=11;" parent="X4feA5MgBI4GjkRbaJ-2-369" vertex="1">
          <mxGeometry x="299" width="42" height="45" as="geometry">
            <mxRectangle width="42" height="45" as="alternateBounds" />
          </mxGeometry>
        </mxCell>
        <mxCell id="X4feA5MgBI4GjkRbaJ-2-374" style="shape=tableRow;horizontal=0;startSize=0;swimlaneHead=0;swimlaneBody=0;fillColor=none;collapsible=0;dropTarget=0;points=[[0,0.5],[1,0.5]];portConstraint=eastwest;top=0;left=0;right=0;bottom=0;" parent="X4feA5MgBI4GjkRbaJ-2-343" vertex="1">
          <mxGeometry y="295" width="341" height="45" as="geometry" />
        </mxCell>
        <mxCell id="X4feA5MgBI4GjkRbaJ-2-375" value="char" style="shape=partialRectangle;connectable=0;fillColor=none;top=0;left=0;bottom=0;right=0;align=left;spacingLeft=2;overflow=hidden;fontSize=11;" parent="X4feA5MgBI4GjkRbaJ-2-374" vertex="1">
          <mxGeometry width="42" height="45" as="geometry">
            <mxRectangle width="42" height="45" as="alternateBounds" />
          </mxGeometry>
        </mxCell>
        <mxCell id="X4feA5MgBI4GjkRbaJ-2-376" value="status" style="shape=partialRectangle;connectable=0;fillColor=none;top=0;left=0;bottom=0;right=0;align=left;spacingLeft=2;overflow=hidden;fontSize=11;" parent="X4feA5MgBI4GjkRbaJ-2-374" vertex="1">
          <mxGeometry x="42" width="235" height="45" as="geometry">
            <mxRectangle width="235" height="45" as="alternateBounds" />
          </mxGeometry>
        </mxCell>
        <mxCell id="X4feA5MgBI4GjkRbaJ-2-377" value="" style="shape=partialRectangle;connectable=0;fillColor=none;top=0;left=0;bottom=0;right=0;align=left;spacingLeft=2;overflow=hidden;fontSize=11;" parent="X4feA5MgBI4GjkRbaJ-2-374" vertex="1">
          <mxGeometry x="277" width="22" height="45" as="geometry">
            <mxRectangle width="22" height="45" as="alternateBounds" />
          </mxGeometry>
        </mxCell>
        <mxCell id="X4feA5MgBI4GjkRbaJ-2-378" value="状态" style="shape=partialRectangle;connectable=0;fillColor=none;top=0;left=0;bottom=0;right=0;align=left;spacingLeft=2;overflow=hidden;fontSize=11;" parent="X4feA5MgBI4GjkRbaJ-2-374" vertex="1">
          <mxGeometry x="299" width="42" height="45" as="geometry">
            <mxRectangle width="42" height="45" as="alternateBounds" />
          </mxGeometry>
        </mxCell>
        <mxCell id="X4feA5MgBI4GjkRbaJ-2-379" value="convert_type" style="curved=1;startArrow=ERmandOne;startSize=10;;endArrow=ERzeroToMany;endSize=10;;exitX=0;exitY=0.7;entryX=0.5;entryY=0;rounded=0;" parent="1" source="X4feA5MgBI4GjkRbaJ-2-1" target="X4feA5MgBI4GjkRbaJ-2-72" edge="1">
          <mxGeometry relative="1" as="geometry">
            <Array as="points">
              <mxPoint x="243" y="712" />
            </Array>
          </mxGeometry>
        </mxCell>
        <mxCell id="X4feA5MgBI4GjkRbaJ-2-380" value="convert_type" style="curved=1;startArrow=ERmandOne;startSize=10;;endArrow=ERzeroToMany;endSize=10;;exitX=0.5;exitY=1;entryX=0.5;entryY=0;rounded=0;" parent="1" source="X4feA5MgBI4GjkRbaJ-2-1" target="X4feA5MgBI4GjkRbaJ-2-123" edge="1">
          <mxGeometry relative="1" as="geometry">
            <Array as="points" />
          </mxGeometry>
        </mxCell>
        <mxCell id="X4feA5MgBI4GjkRbaJ-2-381" value="mcp_item_num" style="curved=1;startArrow=ERmandOne;startSize=10;;endArrow=ERzeroToMany;endSize=10;;exitX=1;exitY=0.85;entryX=0.23;entryY=0;rounded=0;" parent="1" source="X4feA5MgBI4GjkRbaJ-2-1" target="X4feA5MgBI4GjkRbaJ-2-179" edge="1">
          <mxGeometry relative="1" as="geometry">
            <Array as="points">
              <mxPoint x="1157" y="712" />
            </Array>
          </mxGeometry>
        </mxCell>
        <mxCell id="X4feA5MgBI4GjkRbaJ-2-382" value="provider_tool_num" style="curved=1;startArrow=ERzeroToMany;startSize=10;;endArrow=ERmandOne;endSize=10;;exitX=0.5;exitY=1;entryX=0.5;entryY=0;rounded=0;" parent="1" source="X4feA5MgBI4GjkRbaJ-2-72" target="X4feA5MgBI4GjkRbaJ-2-210" edge="1">
          <mxGeometry relative="1" as="geometry">
            <Array as="points" />
          </mxGeometry>
        </mxCell>
        <mxCell id="X4feA5MgBI4GjkRbaJ-2-383" value="provider_tool_num" style="curved=1;startArrow=ERzeroToMany;startSize=10;;endArrow=ERmandOne;endSize=10;;exitX=0.5;exitY=1;entryX=0.5;entryY=0;rounded=0;" parent="1" source="X4feA5MgBI4GjkRbaJ-2-123" target="X4feA5MgBI4GjkRbaJ-2-261" edge="1">
          <mxGeometry relative="1" as="geometry">
            <Array as="points" />
          </mxGeometry>
        </mxCell>
        <mxCell id="X4feA5MgBI4GjkRbaJ-2-384" value="provider_app_num" style="curved=1;startArrow=ERmandOne;startSize=10;;endArrow=ERzeroToMany;endSize=10;;exitX=0.5;exitY=1;entryX=0;entryY=0.02;rounded=0;" parent="1" source="X4feA5MgBI4GjkRbaJ-2-210" target="X4feA5MgBI4GjkRbaJ-2-317" edge="1">
          <mxGeometry relative="1" as="geometry">
            <Array as="points">
              <mxPoint x="243" y="1943" />
            </Array>
          </mxGeometry>
        </mxCell>
        <mxCell id="X4feA5MgBI4GjkRbaJ-2-385" value="provider_app_num" style="curved=1;startArrow=ERmandOne;startSize=10;;endArrow=ERzeroToMany;endSize=10;;exitX=0.5;exitY=1;entryX=1;entryY=0.16;rounded=0;" parent="1" source="X4feA5MgBI4GjkRbaJ-2-261" target="X4feA5MgBI4GjkRbaJ-2-317" edge="1">
          <mxGeometry relative="1" as="geometry">
            <Array as="points">
              <mxPoint x="821" y="1943" />
            </Array>
          </mxGeometry>
        </mxCell>
        <mxCell id="X4feA5MgBI4GjkRbaJ-2-386" value="vserver_id" style="curved=1;startArrow=ERmandOne;startSize=10;;endArrow=ERzeroToMany;endSize=10;;exitX=0.5;exitY=1;entryX=0.57;entryY=0;rounded=0;" parent="1" source="X4feA5MgBI4GjkRbaJ-2-343" target="X4feA5MgBI4GjkRbaJ-2-179" edge="1">
          <mxGeometry relative="1" as="geometry">
            <Array as="points">
              <mxPoint x="1424" y="712" />
            </Array>
          </mxGeometry>
        </mxCell>
      </root>
    </mxGraphModel>
  </diagram>
</mxfile>
